<svg xmlns="http://www.w3.org/2000/svg" width="420" height="277"><g stroke="#000" stroke-opacity="0.02" fill="#ddd" fill-opacity="0.12400000000000001" stroke-width="1" transform="translate(0.0,-35.0)"><polyline points="0,0,35.0,23.799999999999997,35.0,70.0,0,46.2,0,0"></polyline><polyline points="35.0,23.799999999999997,70.0,0,70.0,46.2,35.0,70.0,35.0,23.799999999999997"></polyline></g><g stroke="#000" stroke-opacity="0.02" fill="#ddd" fill-opacity="0.12400000000000001" stroke-width="1" transform="translate(0.0,242.2)"><polyline points="0,0,35.0,23.799999999999997,35.0,70.0,0,46.2,0,0"></polyline><polyline points="35.0,23.799999999999997,70.0,0,70.0,46.2,35.0,70.0,35.0,23.799999999999997"></polyline></g><g stroke="#000" stroke-opacity="0.02" fill="#ddd" fill-opacity="0.02" stroke-width="1" transform="translate(70.0,-35.0)"><polyline points="0,0,35.0,23.799999999999997,35.0,70.0,0,46.2,0,0"></polyline><polyline points="35.0,23.799999999999997,70.0,0,70.0,46.2,35.0,70.0,35.0,23.799999999999997"></polyline></g><g stroke="#000" stroke-opacity="0.02" fill="#ddd" fill-opacity="0.02" stroke-width="1" transform="translate(70.0,242.2)"><polyline points="0,0,35.0,23.799999999999997,35.0,70.0,0,46.2,0,0"></polyline><polyline points="35.0,23.799999999999997,70.0,0,70.0,46.2,35.0,70.0,35.0,23.799999999999997"></polyline></g><g stroke="#000" stroke-opacity="0.02" fill="#222" fill-opacity="0.06333333333333334" stroke-width="1" transform="translate(140.0,-35.0)"><polyline points="0,0,35.0,23.799999999999997,35.0,70.0,0,46.2,0,0"></polyline><polyline points="35.0,23.799999999999997,70.0,0,70.0,46.2,35.0,70.0,35.0,23.799999999999997"></polyline></g><g stroke="#000" stroke-opacity="0.02" fill="#222" fill-opacity="0.06333333333333334" stroke-width="1" transform="translate(140.0,242.2)"><polyline points="0,0,35.0,23.799999999999997,35.0,70.0,0,46.2,0,0"></polyline><polyline points="35.0,23.799999999999997,70.0,0,70.0,46.2,35.0,70.0,35.0,23.799999999999997"></polyline></g><g stroke="#000" stroke-opacity="0.02" fill="#222" fill-opacity="0.046" stroke-width="1" transform="translate(210.0,-35.0)"><polyline points="0,0,35.0,23.799999999999997,35.0,70.0,0,46.2,0,0"></polyline><polyline points="35.0,23.799999999999997,70.0,0,70.0,46.2,35.0,70.0,35.0,23.799999999999997"></polyline></g><g stroke="#000" stroke-opacity="0.02" fill="#222" fill-opacity="0.046" stroke-width="1" transform="translate(210.0,242.2)"><polyline points="0,0,35.0,23.799999999999997,35.0,70.0,0,46.2,0,0"></polyline><polyline points="35.0,23.799999999999997,70.0,0,70.0,46.2,35.0,70.0,35.0,23.799999999999997"></polyline></g><g stroke="#000" stroke-opacity="0.02" fill="#ddd" fill-opacity="0.14133333333333334" stroke-width="1" transform="translate(280.0,-35.0)"><polyline points="0,0,35.0,23.799999999999997,35.0,70.0,0,46.2,0,0"></polyline><polyline points="35.0,23.799999999999997,70.0,0,70.0,46.2,35.0,70.0,35.0,23.799999999999997"></polyline></g><g stroke="#000" stroke-opacity="0.02" fill="#ddd" fill-opacity="0.14133333333333334" stroke-width="1" transform="translate(280.0,242.2)"><polyline points="0,0,35.0,23.799999999999997,35.0,70.0,0,46.2,0,0"></polyline><polyline points="35.0,23.799999999999997,70.0,0,70.0,46.2,35.0,70.0,35.0,23.799999999999997"></polyline></g><g stroke="#000" stroke-opacity="0.02" fill="#ddd" fill-opacity="0.12400000000000001" stroke-width="1" transform="translate(350.0,-35.0)"><polyline points="0,0,35.0,23.799999999999997,35.0,70.0,0,46.2,0,0"></polyline><polyline points="35.0,23.799999999999997,70.0,0,70.0,46.2,35.0,70.0,35.0,23.799999999999997"></polyline></g><g stroke="#000" stroke-opacity="0.02" fill="#ddd" fill-opacity="0.12400000000000001" stroke-width="1" transform="translate(350.0,242.2)"><polyline points="0,0,35.0,23.799999999999997,35.0,70.0,0,46.2,0,0"></polyline><polyline points="35.0,23.799999999999997,70.0,0,70.0,46.2,35.0,70.0,35.0,23.799999999999997"></polyline></g><g stroke="#000" stroke-opacity="0.02" fill="#222" fill-opacity="0.15" stroke-width="1" transform="translate(0.0,11.200000000000003)"><polyline points="0,0,35.0,23.799999999999997,35.0,70.0,0,46.2,0,0"></polyline><polyline points="35.0,23.799999999999997,70.0,0,70.0,46.2,35.0,70.0,35.0,23.799999999999997"></polyline></g><g stroke="#000" stroke-opacity="0.02" fill="#222" fill-opacity="0.098" stroke-width="1" transform="translate(70.0,11.200000000000003)"><polyline points="0,0,35.0,23.799999999999997,35.0,70.0,0,46.2,0,0"></polyline><polyline points="35.0,23.799999999999997,70.0,0,70.0,46.2,35.0,70.0,35.0,23.799999999999997"></polyline></g><g stroke="#000" stroke-opacity="0.02" fill="#ddd" fill-opacity="0.14133333333333334" stroke-width="1" transform="translate(140.0,11.200000000000003)"><polyline points="0,0,35.0,23.799999999999997,35.0,70.0,0,46.2,0,0"></polyline><polyline points="35.0,23.799999999999997,70.0,0,70.0,46.2,35.0,70.0,35.0,23.799999999999997"></polyline></g><g stroke="#000" stroke-opacity="0.02" fill="#222" fill-opacity="0.13266666666666665" stroke-width="1" transform="translate(210.0,11.200000000000003)"><polyline points="0,0,35.0,23.799999999999997,35.0,70.0,0,46.2,0,0"></polyline><polyline points="35.0,23.799999999999997,70.0,0,70.0,46.2,35.0,70.0,35.0,23.799999999999997"></polyline></g><g stroke="#000" stroke-opacity="0.02" fill="#ddd" fill-opacity="0.05466666666666667" stroke-width="1" transform="translate(280.0,11.200000000000003)"><polyline points="0,0,35.0,23.799999999999997,35.0,70.0,0,46.2,0,0"></polyline><polyline points="35.0,23.799999999999997,70.0,0,70.0,46.2,35.0,70.0,35.0,23.799999999999997"></polyline></g><g stroke="#000" stroke-opacity="0.02" fill="#222" fill-opacity="0.028666666666666667" stroke-width="1" transform="translate(350.0,11.200000000000003)"><polyline points="0,0,35.0,23.799999999999997,35.0,70.0,0,46.2,0,0"></polyline><polyline points="35.0,23.799999999999997,70.0,0,70.0,46.2,35.0,70.0,35.0,23.799999999999997"></polyline></g><g stroke="#000" stroke-opacity="0.02" fill="#222" fill-opacity="0.13266666666666665" stroke-width="1" transform="translate(0.0,57.400000000000006)"><polyline points="0,0,35.0,23.799999999999997,35.0,70.0,0,46.2,0,0"></polyline><polyline points="35.0,23.799999999999997,70.0,0,70.0,46.2,35.0,70.0,35.0,23.799999999999997"></polyline></g><g stroke="#000" stroke-opacity="0.02" fill="#222" fill-opacity="0.15" stroke-width="1" transform="translate(70.0,57.400000000000006)"><polyline points="0,0,35.0,23.799999999999997,35.0,70.0,0,46.2,0,0"></polyline><polyline points="35.0,23.799999999999997,70.0,0,70.0,46.2,35.0,70.0,35.0,23.799999999999997"></polyline></g><g stroke="#000" stroke-opacity="0.02" fill="#ddd" fill-opacity="0.02" stroke-width="1" transform="translate(140.0,57.400000000000006)"><polyline points="0,0,35.0,23.799999999999997,35.0,70.0,0,46.2,0,0"></polyline><polyline points="35.0,23.799999999999997,70.0,0,70.0,46.2,35.0,70.0,35.0,23.799999999999997"></polyline></g><g stroke="#000" stroke-opacity="0.02" fill="#222" fill-opacity="0.046" stroke-width="1" transform="translate(210.0,57.400000000000006)"><polyline points="0,0,35.0,23.799999999999997,35.0,70.0,0,46.2,0,0"></polyline><polyline points="35.0,23.799999999999997,70.0,0,70.0,46.2,35.0,70.0,35.0,23.799999999999997"></polyline></g><g stroke="#000" stroke-opacity="0.02" fill="#222" fill-opacity="0.028666666666666667" stroke-width="1" transform="translate(280.0,57.400000000000006)"><polyline points="0,0,35.0,23.799999999999997,35.0,70.0,0,46.2,0,0"></polyline><polyline points="35.0,23.799999999999997,70.0,0,70.0,46.2,35.0,70.0,35.0,23.799999999999997"></polyline></g><g stroke="#000" stroke-opacity="0.02" fill="#222" fill-opacity="0.028666666666666667" stroke-width="1" transform="translate(350.0,57.400000000000006)"><polyline points="0,0,35.0,23.799999999999997,35.0,70.0,0,46.2,0,0"></polyline><polyline points="35.0,23.799999999999997,70.0,0,70.0,46.2,35.0,70.0,35.0,23.799999999999997"></polyline></g><g stroke="#000" stroke-opacity="0.02" fill="#222" fill-opacity="0.11533333333333334" stroke-width="1" transform="translate(0.0,103.6)"><polyline points="0,0,35.0,23.799999999999997,35.0,70.0,0,46.2,0,0"></polyline><polyline points="35.0,23.799999999999997,70.0,0,70.0,46.2,35.0,70.0,35.0,23.799999999999997"></polyline></g><g stroke="#000" stroke-opacity="0.02" fill="#222" fill-opacity="0.098" stroke-width="1" transform="translate(70.0,103.6)"><polyline points="0,0,35.0,23.799999999999997,35.0,70.0,0,46.2,0,0"></polyline><polyline points="35.0,23.799999999999997,70.0,0,70.0,46.2,35.0,70.0,35.0,23.799999999999997"></polyline></g><g stroke="#000" stroke-opacity="0.02" fill="#222" fill-opacity="0.13266666666666665" stroke-width="1" transform="translate(140.0,103.6)"><polyline points="0,0,35.0,23.799999999999997,35.0,70.0,0,46.2,0,0"></polyline><polyline points="35.0,23.799999999999997,70.0,0,70.0,46.2,35.0,70.0,35.0,23.799999999999997"></polyline></g><g stroke="#000" stroke-opacity="0.02" fill="#222" fill-opacity="0.15" stroke-width="1" transform="translate(210.0,103.6)"><polyline points="0,0,35.0,23.799999999999997,35.0,70.0,0,46.2,0,0"></polyline><polyline points="35.0,23.799999999999997,70.0,0,70.0,46.2,35.0,70.0,35.0,23.799999999999997"></polyline></g><g stroke="#000" stroke-opacity="0.02" fill="#222" fill-opacity="0.028666666666666667" stroke-width="1" transform="translate(280.0,103.6)"><polyline points="0,0,35.0,23.799999999999997,35.0,70.0,0,46.2,0,0"></polyline><polyline points="35.0,23.799999999999997,70.0,0,70.0,46.2,35.0,70.0,35.0,23.799999999999997"></polyline></g><g stroke="#000" stroke-opacity="0.02" fill="#222" fill-opacity="0.046" stroke-width="1" transform="translate(350.0,103.6)"><polyline points="0,0,35.0,23.799999999999997,35.0,70.0,0,46.2,0,0"></polyline><polyline points="35.0,23.799999999999997,70.0,0,70.0,46.2,35.0,70.0,35.0,23.799999999999997"></polyline></g><g stroke="#000" stroke-opacity="0.02" fill="#ddd" fill-opacity="0.12400000000000001" stroke-width="1" transform="translate(0.0,149.8)"><polyline points="0,0,35.0,23.799999999999997,35.0,70.0,0,46.2,0,0"></polyline><polyline points="35.0,23.799999999999997,70.0,0,70.0,46.2,35.0,70.0,35.0,23.799999999999997"></polyline></g><g stroke="#000" stroke-opacity="0.02" fill="#ddd" fill-opacity="0.12400000000000001" stroke-width="1" transform="translate(70.0,149.8)"><polyline points="0,0,35.0,23.799999999999997,35.0,70.0,0,46.2,0,0"></polyline><polyline points="35.0,23.799999999999997,70.0,0,70.0,46.2,35.0,70.0,35.0,23.799999999999997"></polyline></g><g stroke="#000" stroke-opacity="0.02" fill="#ddd" fill-opacity="0.07200000000000001" stroke-width="1" transform="translate(140.0,149.8)"><polyline points="0,0,35.0,23.799999999999997,35.0,70.0,0,46.2,0,0"></polyline><polyline points="35.0,23.799999999999997,70.0,0,70.0,46.2,35.0,70.0,35.0,23.799999999999997"></polyline></g><g stroke="#000" stroke-opacity="0.02" fill="#ddd" fill-opacity="0.12400000000000001" stroke-width="1" transform="translate(210.0,149.8)"><polyline points="0,0,35.0,23.799999999999997,35.0,70.0,0,46.2,0,0"></polyline><polyline points="35.0,23.799999999999997,70.0,0,70.0,46.2,35.0,70.0,35.0,23.799999999999997"></polyline></g><g stroke="#000" stroke-opacity="0.02" fill="#222" fill-opacity="0.046" stroke-width="1" transform="translate(280.0,149.8)"><polyline points="0,0,35.0,23.799999999999997,35.0,70.0,0,46.2,0,0"></polyline><polyline points="35.0,23.799999999999997,70.0,0,70.0,46.2,35.0,70.0,35.0,23.799999999999997"></polyline></g><g stroke="#000" stroke-opacity="0.02" fill="#222" fill-opacity="0.11533333333333334" stroke-width="1" transform="translate(350.0,149.8)"><polyline points="0,0,35.0,23.799999999999997,35.0,70.0,0,46.2,0,0"></polyline><polyline points="35.0,23.799999999999997,70.0,0,70.0,46.2,35.0,70.0,35.0,23.799999999999997"></polyline></g><g stroke="#000" stroke-opacity="0.02" fill="#ddd" fill-opacity="0.07200000000000001" stroke-width="1" transform="translate(0.0,196.0)"><polyline points="0,0,35.0,23.799999999999997,35.0,70.0,0,46.2,0,0"></polyline><polyline points="35.0,23.799999999999997,70.0,0,70.0,46.2,35.0,70.0,35.0,23.799999999999997"></polyline></g><g stroke="#000" stroke-opacity="0.02" fill="#ddd" fill-opacity="0.02" stroke-width="1" transform="translate(70.0,196.0)"><polyline points="0,0,35.0,23.799999999999997,35.0,70.0,0,46.2,0,0"></polyline><polyline points="35.0,23.799999999999997,70.0,0,70.0,46.2,35.0,70.0,35.0,23.799999999999997"></polyline></g><g stroke="#000" stroke-opacity="0.02" fill="#222" fill-opacity="0.08066666666666666" stroke-width="1" transform="translate(140.0,196.0)"><polyline points="0,0,35.0,23.799999999999997,35.0,70.0,0,46.2,0,0"></polyline><polyline points="35.0,23.799999999999997,70.0,0,70.0,46.2,35.0,70.0,35.0,23.799999999999997"></polyline></g><g stroke="#000" stroke-opacity="0.02" fill="#ddd" fill-opacity="0.08933333333333333" stroke-width="1" transform="translate(210.0,196.0)"><polyline points="0,0,35.0,23.799999999999997,35.0,70.0,0,46.2,0,0"></polyline><polyline points="35.0,23.799999999999997,70.0,0,70.0,46.2,35.0,70.0,35.0,23.799999999999997"></polyline></g><g stroke="#000" stroke-opacity="0.02" fill="#222" fill-opacity="0.13266666666666665" stroke-width="1" transform="translate(280.0,196.0)"><polyline points="0,0,35.0,23.799999999999997,35.0,70.0,0,46.2,0,0"></polyline><polyline points="35.0,23.799999999999997,70.0,0,70.0,46.2,35.0,70.0,35.0,23.799999999999997"></polyline></g><g stroke="#000" stroke-opacity="0.02" fill="#ddd" fill-opacity="0.03733333333333333" stroke-width="1" transform="translate(350.0,196.0)"><polyline points="0,0,35.0,23.799999999999997,35.0,70.0,0,46.2,0,0"></polyline><polyline points="35.0,23.799999999999997,70.0,0,70.0,46.2,35.0,70.0,35.0,23.799999999999997"></polyline></g></svg>