<svg xmlns="http://www.w3.org/2000/svg" width="360" height="360"><circle cx="30.0" cy="30.0" r="25.0" fill="none" stroke="#ddd" style="opacity:0.12400000000000001;stroke-width:10.0px;"></circle><circle cx="30.0" cy="30.0" r="12.5" fill="#ddd" fill-opacity="0.03733333333333333"></circle><circle cx="90.0" cy="30.0" r="25.0" fill="none" stroke="#ddd" style="opacity:0.02;stroke-width:10.0px;"></circle><circle cx="90.0" cy="30.0" r="12.5" fill="#ddd" fill-opacity="0.12400000000000001"></circle><circle cx="150.0" cy="30.0" r="25.0" fill="none" stroke="#222" style="opacity:0.06333333333333334;stroke-width:10.0px;"></circle><circle cx="150.0" cy="30.0" r="12.5" fill="#222" fill-opacity="0.046"></circle><circle cx="210.0" cy="30.0" r="25.0" fill="none" stroke="#222" style="opacity:0.046;stroke-width:10.0px;"></circle><circle cx="210.0" cy="30.0" r="12.5" fill="#222" fill-opacity="0.13266666666666665"></circle><circle cx="270.0" cy="30.0" r="25.0" fill="none" stroke="#ddd" style="opacity:0.14133333333333334;stroke-width:10.0px;"></circle><circle cx="270.0" cy="30.0" r="12.5" fill="#ddd" fill-opacity="0.03733333333333333"></circle><circle cx="330.0" cy="30.0" r="25.0" fill="none" stroke="#ddd" style="opacity:0.12400000000000001;stroke-width:10.0px;"></circle><circle cx="330.0" cy="30.0" r="12.5" fill="#222" fill-opacity="0.13266666666666665"></circle><circle cx="30.0" cy="90.0" r="25.0" fill="none" stroke="#222" style="opacity:0.15;stroke-width:10.0px;"></circle><circle cx="30.0" cy="90.0" r="12.5" fill="#ddd" fill-opacity="0.08933333333333333"></circle><circle cx="90.0" cy="90.0" r="25.0" fill="none" stroke="#222" style="opacity:0.098;stroke-width:10.0px;"></circle><circle cx="90.0" cy="90.0" r="12.5" fill="#222" fill-opacity="0.08066666666666666"></circle><circle cx="150.0" cy="90.0" r="25.0" fill="none" stroke="#ddd" style="opacity:0.14133333333333334;stroke-width:10.0px;"></circle><circle cx="150.0" cy="90.0" r="12.5" fill="#ddd" fill-opacity="0.02"></circle><circle cx="210.0" cy="90.0" r="25.0" fill="none" stroke="#222" style="opacity:0.13266666666666665;stroke-width:10.0px;"></circle><circle cx="210.0" cy="90.0" r="12.5" fill="#ddd" fill-opacity="0.07200000000000001"></circle><circle cx="270.0" cy="90.0" r="25.0" fill="none" stroke="#ddd" style="opacity:0.05466666666666667;stroke-width:10.0px;"></circle><circle cx="270.0" cy="90.0" r="12.5" fill="#222" fill-opacity="0.11533333333333334"></circle><circle cx="330.0" cy="90.0" r="25.0" fill="none" stroke="#222" style="opacity:0.028666666666666667;stroke-width:10.0px;"></circle><circle cx="330.0" cy="90.0" r="12.5" fill="#222" fill-opacity="0.046"></circle><circle cx="30.0" cy="150.0" r="25.0" fill="none" stroke="#222" style="opacity:0.13266666666666665;stroke-width:10.0px;"></circle><circle cx="30.0" cy="150.0" r="12.5" fill="#ddd" fill-opacity="0.12400000000000001"></circle><circle cx="90.0" cy="150.0" r="25.0" fill="none" stroke="#222" style="opacity:0.15;stroke-width:10.0px;"></circle><circle cx="90.0" cy="150.0" r="12.5" fill="#ddd" fill-opacity="0.07200000000000001"></circle><circle cx="150.0" cy="150.0" r="25.0" fill="none" stroke="#ddd" style="opacity:0.02;stroke-width:10.0px;"></circle><circle cx="150.0" cy="150.0" r="12.5" fill="#ddd" fill-opacity="0.12400000000000001"></circle><circle cx="210.0" cy="150.0" r="25.0" fill="none" stroke="#222" style="opacity:0.046;stroke-width:10.0px;"></circle><circle cx="210.0" cy="150.0" r="12.5" fill="#ddd" fill-opacity="0.12400000000000001"></circle><circle cx="270.0" cy="150.0" r="25.0" fill="none" stroke="#222" style="opacity:0.028666666666666667;stroke-width:10.0px;"></circle><circle cx="270.0" cy="150.0" r="12.5" fill="#222" fill-opacity="0.046"></circle><circle cx="330.0" cy="150.0" r="25.0" fill="none" stroke="#222" style="opacity:0.028666666666666667;stroke-width:10.0px;"></circle><circle cx="330.0" cy="150.0" r="12.5" fill="#222" fill-opacity="0.028666666666666667"></circle><circle cx="30.0" cy="210.0" r="25.0" fill="none" stroke="#222" style="opacity:0.11533333333333334;stroke-width:10.0px;"></circle><circle cx="30.0" cy="210.0" r="12.5" fill="#222" fill-opacity="0.15"></circle><circle cx="90.0" cy="210.0" r="25.0" fill="none" stroke="#222" style="opacity:0.098;stroke-width:10.0px;"></circle><circle cx="90.0" cy="210.0" r="12.5" fill="#222" fill-opacity="0.13266666666666665"></circle><circle cx="150.0" cy="210.0" r="25.0" fill="none" stroke="#222" style="opacity:0.13266666666666665;stroke-width:10.0px;"></circle><circle cx="150.0" cy="210.0" r="12.5" fill="#222" fill-opacity="0.098"></circle><circle cx="210.0" cy="210.0" r="25.0" fill="none" stroke="#222" style="opacity:0.15;stroke-width:10.0px;"></circle><circle cx="210.0" cy="210.0" r="12.5" fill="#222" fill-opacity="0.11533333333333334"></circle><circle cx="270.0" cy="210.0" r="25.0" fill="none" stroke="#222" style="opacity:0.028666666666666667;stroke-width:10.0px;"></circle><circle cx="270.0" cy="210.0" r="12.5" fill="#222" fill-opacity="0.028666666666666667"></circle><circle cx="330.0" cy="210.0" r="25.0" fill="none" stroke="#222" style="opacity:0.046;stroke-width:10.0px;"></circle><circle cx="330.0" cy="210.0" r="12.5" fill="#222" fill-opacity="0.028666666666666667"></circle><circle cx="30.0" cy="270.0" r="25.0" fill="none" stroke="#ddd" style="opacity:0.12400000000000001;stroke-width:10.0px;"></circle><circle cx="30.0" cy="270.0" r="12.5" fill="#222" fill-opacity="0.046"></circle><circle cx="90.0" cy="270.0" r="25.0" fill="none" stroke="#ddd" style="opacity:0.12400000000000001;stroke-width:10.0px;"></circle><circle cx="90.0" cy="270.0" r="12.5" fill="#ddd" fill-opacity="0.02"></circle><circle cx="150.0" cy="270.0" r="25.0" fill="none" stroke="#ddd" style="opacity:0.07200000000000001;stroke-width:10.0px;"></circle><circle cx="150.0" cy="270.0" r="12.5" fill="#222" fill-opacity="0.15"></circle><circle cx="210.0" cy="270.0" r="25.0" fill="none" stroke="#ddd" style="opacity:0.12400000000000001;stroke-width:10.0px;"></circle><circle cx="210.0" cy="270.0" r="12.5" fill="#222" fill-opacity="0.13266666666666665"></circle><circle cx="270.0" cy="270.0" r="25.0" fill="none" stroke="#222" style="opacity:0.046;stroke-width:10.0px;"></circle><circle cx="270.0" cy="270.0" r="12.5" fill="#222" fill-opacity="0.028666666666666667"></circle><circle cx="330.0" cy="270.0" r="25.0" fill="none" stroke="#222" style="opacity:0.11533333333333334;stroke-width:10.0px;"></circle><circle cx="330.0" cy="270.0" r="12.5" fill="#ddd" fill-opacity="0.05466666666666667"></circle><circle cx="30.0" cy="330.0" r="25.0" fill="none" stroke="#ddd" style="opacity:0.07200000000000001;stroke-width:10.0px;"></circle><circle cx="30.0" cy="330.0" r="12.5" fill="#222" fill-opacity="0.13266666666666665"></circle><circle cx="90.0" cy="330.0" r="25.0" fill="none" stroke="#ddd" style="opacity:0.02;stroke-width:10.0px;"></circle><circle cx="90.0" cy="330.0" r="12.5" fill="#ddd" fill-opacity="0.14133333333333334"></circle><circle cx="150.0" cy="330.0" r="25.0" fill="none" stroke="#222" style="opacity:0.08066666666666666;stroke-width:10.0px;"></circle><circle cx="150.0" cy="330.0" r="12.5" fill="#222" fill-opacity="0.098"></circle><circle cx="210.0" cy="330.0" r="25.0" fill="none" stroke="#ddd" style="opacity:0.08933333333333333;stroke-width:10.0px;"></circle><circle cx="210.0" cy="330.0" r="12.5" fill="#222" fill-opacity="0.15"></circle><circle cx="270.0" cy="330.0" r="25.0" fill="none" stroke="#222" style="opacity:0.13266666666666665;stroke-width:10.0px;"></circle><circle cx="270.0" cy="330.0" r="12.5" fill="#ddd" fill-opacity="0.12400000000000001"></circle><circle cx="330.0" cy="330.0" r="25.0" fill="none" stroke="#ddd" style="opacity:0.03733333333333333;stroke-width:10.0px;"></circle><circle cx="330.0" cy="330.0" r="12.5" fill="#ddd" fill-opacity="0.14133333333333334"></circle></svg>