<svg xmlns="http://www.w3.org/2000/svg" width="252" height="30"><polyline points="21.0, 0, 42.0, 5.0, 21.0, 10.0, 0, 5.0" fill="#ddd" fill-opacity="0.12400000000000001" stroke="#000" stroke-opacity="0.02" transform="translate(-21.0, -5.0)"></polyline><polyline points="21.0, 0, 42.0, 5.0, 21.0, 10.0, 0, 5.0" fill="#ddd" fill-opacity="0.12400000000000001" stroke="#000" stroke-opacity="0.02" transform="translate(231.0, -5.0)"></polyline><polyline points="21.0, 0, 42.0, 5.0, 21.0, 10.0, 0, 5.0" fill="#ddd" fill-opacity="0.12400000000000001" stroke="#000" stroke-opacity="0.02" transform="translate(-21.0, 25.0)"></polyline><polyline points="21.0, 0, 42.0, 5.0, 21.0, 10.0, 0, 5.0" fill="#ddd" fill-opacity="0.12400000000000001" stroke="#000" stroke-opacity="0.02" transform="translate(231.0, 25.0)"></polyline><polyline points="21.0, 0, 42.0, 5.0, 21.0, 10.0, 0, 5.0" fill="#ddd" fill-opacity="0.02" stroke="#000" stroke-opacity="0.02" transform="translate(21.0, -5.0)"></polyline><polyline points="21.0, 0, 42.0, 5.0, 21.0, 10.0, 0, 5.0" fill="#ddd" fill-opacity="0.02" stroke="#000" stroke-opacity="0.02" transform="translate(21.0, 25.0)"></polyline><polyline points="21.0, 0, 42.0, 5.0, 21.0, 10.0, 0, 5.0" fill="#222" fill-opacity="0.06333333333333334" stroke="#000" stroke-opacity="0.02" transform="translate(63.0, -5.0)"></polyline><polyline points="21.0, 0, 42.0, 5.0, 21.0, 10.0, 0, 5.0" fill="#222" fill-opacity="0.06333333333333334" stroke="#000" stroke-opacity="0.02" transform="translate(63.0, 25.0)"></polyline><polyline points="21.0, 0, 42.0, 5.0, 21.0, 10.0, 0, 5.0" fill="#222" fill-opacity="0.046" stroke="#000" stroke-opacity="0.02" transform="translate(105.0, -5.0)"></polyline><polyline points="21.0, 0, 42.0, 5.0, 21.0, 10.0, 0, 5.0" fill="#222" fill-opacity="0.046" stroke="#000" stroke-opacity="0.02" transform="translate(105.0, 25.0)"></polyline><polyline points="21.0, 0, 42.0, 5.0, 21.0, 10.0, 0, 5.0" fill="#ddd" fill-opacity="0.14133333333333334" stroke="#000" stroke-opacity="0.02" transform="translate(147.0, -5.0)"></polyline><polyline points="21.0, 0, 42.0, 5.0, 21.0, 10.0, 0, 5.0" fill="#ddd" fill-opacity="0.14133333333333334" stroke="#000" stroke-opacity="0.02" transform="translate(147.0, 25.0)"></polyline><polyline points="21.0, 0, 42.0, 5.0, 21.0, 10.0, 0, 5.0" fill="#ddd" fill-opacity="0.12400000000000001" stroke="#000" stroke-opacity="0.02" transform="translate(189.0, -5.0)"></polyline><polyline points="21.0, 0, 42.0, 5.0, 21.0, 10.0, 0, 5.0" fill="#ddd" fill-opacity="0.12400000000000001" stroke="#000" stroke-opacity="0.02" transform="translate(189.0, 25.0)"></polyline><polyline points="21.0, 0, 42.0, 5.0, 21.0, 10.0, 0, 5.0" fill="#222" fill-opacity="0.15" stroke="#000" stroke-opacity="0.02" transform="translate(0.0, 0.0)"></polyline><polyline points="21.0, 0, 42.0, 5.0, 21.0, 10.0, 0, 5.0" fill="#222" fill-opacity="0.15" stroke="#000" stroke-opacity="0.02" transform="translate(252.0, 0.0)"></polyline><polyline points="21.0, 0, 42.0, 5.0, 21.0, 10.0, 0, 5.0" fill="#222" fill-opacity="0.098" stroke="#000" stroke-opacity="0.02" transform="translate(42.0, 0.0)"></polyline><polyline points="21.0, 0, 42.0, 5.0, 21.0, 10.0, 0, 5.0" fill="#ddd" fill-opacity="0.14133333333333334" stroke="#000" stroke-opacity="0.02" transform="translate(84.0, 0.0)"></polyline><polyline points="21.0, 0, 42.0, 5.0, 21.0, 10.0, 0, 5.0" fill="#222" fill-opacity="0.13266666666666665" stroke="#000" stroke-opacity="0.02" transform="translate(126.0, 0.0)"></polyline><polyline points="21.0, 0, 42.0, 5.0, 21.0, 10.0, 0, 5.0" fill="#ddd" fill-opacity="0.05466666666666667" stroke="#000" stroke-opacity="0.02" transform="translate(168.0, 0.0)"></polyline><polyline points="21.0, 0, 42.0, 5.0, 21.0, 10.0, 0, 5.0" fill="#222" fill-opacity="0.028666666666666667" stroke="#000" stroke-opacity="0.02" transform="translate(210.0, 0.0)"></polyline><polyline points="21.0, 0, 42.0, 5.0, 21.0, 10.0, 0, 5.0" fill="#222" fill-opacity="0.13266666666666665" stroke="#000" stroke-opacity="0.02" transform="translate(-21.0, 5.0)"></polyline><polyline points="21.0, 0, 42.0, 5.0, 21.0, 10.0, 0, 5.0" fill="#222" fill-opacity="0.13266666666666665" stroke="#000" stroke-opacity="0.02" transform="translate(231.0, 5.0)"></polyline><polyline points="21.0, 0, 42.0, 5.0, 21.0, 10.0, 0, 5.0" fill="#222" fill-opacity="0.15" stroke="#000" stroke-opacity="0.02" transform="translate(21.0, 5.0)"></polyline><polyline points="21.0, 0, 42.0, 5.0, 21.0, 10.0, 0, 5.0" fill="#ddd" fill-opacity="0.02" stroke="#000" stroke-opacity="0.02" transform="translate(63.0, 5.0)"></polyline><polyline points="21.0, 0, 42.0, 5.0, 21.0, 10.0, 0, 5.0" fill="#222" fill-opacity="0.046" stroke="#000" stroke-opacity="0.02" transform="translate(105.0, 5.0)"></polyline><polyline points="21.0, 0, 42.0, 5.0, 21.0, 10.0, 0, 5.0" fill="#222" fill-opacity="0.028666666666666667" stroke="#000" stroke-opacity="0.02" transform="translate(147.0, 5.0)"></polyline><polyline points="21.0, 0, 42.0, 5.0, 21.0, 10.0, 0, 5.0" fill="#222" fill-opacity="0.028666666666666667" stroke="#000" stroke-opacity="0.02" transform="translate(189.0, 5.0)"></polyline><polyline points="21.0, 0, 42.0, 5.0, 21.0, 10.0, 0, 5.0" fill="#222" fill-opacity="0.11533333333333334" stroke="#000" stroke-opacity="0.02" transform="translate(0.0, 10.0)"></polyline><polyline points="21.0, 0, 42.0, 5.0, 21.0, 10.0, 0, 5.0" fill="#222" fill-opacity="0.11533333333333334" stroke="#000" stroke-opacity="0.02" transform="translate(252.0, 10.0)"></polyline><polyline points="21.0, 0, 42.0, 5.0, 21.0, 10.0, 0, 5.0" fill="#222" fill-opacity="0.098" stroke="#000" stroke-opacity="0.02" transform="translate(42.0, 10.0)"></polyline><polyline points="21.0, 0, 42.0, 5.0, 21.0, 10.0, 0, 5.0" fill="#222" fill-opacity="0.13266666666666665" stroke="#000" stroke-opacity="0.02" transform="translate(84.0, 10.0)"></polyline><polyline points="21.0, 0, 42.0, 5.0, 21.0, 10.0, 0, 5.0" fill="#222" fill-opacity="0.15" stroke="#000" stroke-opacity="0.02" transform="translate(126.0, 10.0)"></polyline><polyline points="21.0, 0, 42.0, 5.0, 21.0, 10.0, 0, 5.0" fill="#222" fill-opacity="0.028666666666666667" stroke="#000" stroke-opacity="0.02" transform="translate(168.0, 10.0)"></polyline><polyline points="21.0, 0, 42.0, 5.0, 21.0, 10.0, 0, 5.0" fill="#222" fill-opacity="0.046" stroke="#000" stroke-opacity="0.02" transform="translate(210.0, 10.0)"></polyline><polyline points="21.0, 0, 42.0, 5.0, 21.0, 10.0, 0, 5.0" fill="#ddd" fill-opacity="0.12400000000000001" stroke="#000" stroke-opacity="0.02" transform="translate(-21.0, 15.0)"></polyline><polyline points="21.0, 0, 42.0, 5.0, 21.0, 10.0, 0, 5.0" fill="#ddd" fill-opacity="0.12400000000000001" stroke="#000" stroke-opacity="0.02" transform="translate(231.0, 15.0)"></polyline><polyline points="21.0, 0, 42.0, 5.0, 21.0, 10.0, 0, 5.0" fill="#ddd" fill-opacity="0.12400000000000001" stroke="#000" stroke-opacity="0.02" transform="translate(21.0, 15.0)"></polyline><polyline points="21.0, 0, 42.0, 5.0, 21.0, 10.0, 0, 5.0" fill="#ddd" fill-opacity="0.07200000000000001" stroke="#000" stroke-opacity="0.02" transform="translate(63.0, 15.0)"></polyline><polyline points="21.0, 0, 42.0, 5.0, 21.0, 10.0, 0, 5.0" fill="#ddd" fill-opacity="0.12400000000000001" stroke="#000" stroke-opacity="0.02" transform="translate(105.0, 15.0)"></polyline><polyline points="21.0, 0, 42.0, 5.0, 21.0, 10.0, 0, 5.0" fill="#222" fill-opacity="0.046" stroke="#000" stroke-opacity="0.02" transform="translate(147.0, 15.0)"></polyline><polyline points="21.0, 0, 42.0, 5.0, 21.0, 10.0, 0, 5.0" fill="#222" fill-opacity="0.11533333333333334" stroke="#000" stroke-opacity="0.02" transform="translate(189.0, 15.0)"></polyline><polyline points="21.0, 0, 42.0, 5.0, 21.0, 10.0, 0, 5.0" fill="#ddd" fill-opacity="0.07200000000000001" stroke="#000" stroke-opacity="0.02" transform="translate(0.0, 20.0)"></polyline><polyline points="21.0, 0, 42.0, 5.0, 21.0, 10.0, 0, 5.0" fill="#ddd" fill-opacity="0.07200000000000001" stroke="#000" stroke-opacity="0.02" transform="translate(252.0, 20.0)"></polyline><polyline points="21.0, 0, 42.0, 5.0, 21.0, 10.0, 0, 5.0" fill="#ddd" fill-opacity="0.02" stroke="#000" stroke-opacity="0.02" transform="translate(42.0, 20.0)"></polyline><polyline points="21.0, 0, 42.0, 5.0, 21.0, 10.0, 0, 5.0" fill="#222" fill-opacity="0.08066666666666666" stroke="#000" stroke-opacity="0.02" transform="translate(84.0, 20.0)"></polyline><polyline points="21.0, 0, 42.0, 5.0, 21.0, 10.0, 0, 5.0" fill="#ddd" fill-opacity="0.08933333333333333" stroke="#000" stroke-opacity="0.02" transform="translate(126.0, 20.0)"></polyline><polyline points="21.0, 0, 42.0, 5.0, 21.0, 10.0, 0, 5.0" fill="#222" fill-opacity="0.13266666666666665" stroke="#000" stroke-opacity="0.02" transform="translate(168.0, 20.0)"></polyline><polyline points="21.0, 0, 42.0, 5.0, 21.0, 10.0, 0, 5.0" fill="#ddd" fill-opacity="0.03733333333333333" stroke="#000" stroke-opacity="0.02" transform="translate(210.0, 20.0)"></polyline></svg>