<svg xmlns="http://www.w3.org/2000/svg" width="446" height="515"><polyline points="0,42.95486002770816,24.8,0,74.4,0,99.2,42.95486002770816,74.4,85.90972005541632,24.8,85.90972005541632,0,42.95486002770816" fill="#ddd" fill-opacity="0.12400000000000001" stroke="#000" stroke-opacity="0.02" transform="translate(-49.6, -42.95486002770816)"></polyline><polyline points="0,42.95486002770816,24.8,0,74.4,0,99.2,42.95486002770816,74.4,85.90972005541632,24.8,85.90972005541632,0,42.95486002770816" fill="#ddd" fill-opacity="0.12400000000000001" stroke="#000" stroke-opacity="0.02" transform="translate(396.8, -42.95486002770816)"></polyline><polyline points="0,42.95486002770816,24.8,0,74.4,0,99.2,42.95486002770816,74.4,85.90972005541632,24.8,85.90972005541632,0,42.95486002770816" fill="#ddd" fill-opacity="0.12400000000000001" stroke="#000" stroke-opacity="0.02" transform="translate(-49.6, 472.50346030478977)"></polyline><polyline points="0,42.95486002770816,24.8,0,74.4,0,99.2,42.95486002770816,74.4,85.90972005541632,24.8,85.90972005541632,0,42.95486002770816" fill="#ddd" fill-opacity="0.12400000000000001" stroke="#000" stroke-opacity="0.02" transform="translate(396.8, 472.5034603047897)"></polyline><polyline points="0,42.95486002770816,24.8,0,74.4,0,99.2,42.95486002770816,74.4,85.90972005541632,24.8,85.90972005541632,0,42.95486002770816" fill="#ddd" fill-opacity="0.02" stroke="#000" stroke-opacity="0.02" transform="translate(24.800000000000004, 0.0)"></polyline><polyline points="0,42.95486002770816,24.8,0,74.4,0,99.2,42.95486002770816,74.4,85.90972005541632,24.8,85.90972005541632,0,42.95486002770816" fill="#ddd" fill-opacity="0.02" stroke="#000" stroke-opacity="0.02" transform="translate(24.800000000000004, 515.4583203324979)"></polyline><polyline points="0,42.95486002770816,24.8,0,74.4,0,99.2,42.95486002770816,74.4,85.90972005541632,24.8,85.90972005541632,0,42.95486002770816" fill="#222" fill-opacity="0.06333333333333334" stroke="#000" stroke-opacity="0.02" transform="translate(99.20000000000002, -42.95486002770816)"></polyline><polyline points="0,42.95486002770816,24.8,0,74.4,0,99.2,42.95486002770816,74.4,85.90972005541632,24.8,85.90972005541632,0,42.95486002770816" fill="#222" fill-opacity="0.06333333333333334" stroke="#000" stroke-opacity="0.02" transform="translate(99.20000000000002, 472.50346030478977)"></polyline><polyline points="0,42.95486002770816,24.8,0,74.4,0,99.2,42.95486002770816,74.4,85.90972005541632,24.8,85.90972005541632,0,42.95486002770816" fill="#222" fill-opacity="0.046" stroke="#000" stroke-opacity="0.02" transform="translate(173.60000000000002, 0.0)"></polyline><polyline points="0,42.95486002770816,24.8,0,74.4,0,99.2,42.95486002770816,74.4,85.90972005541632,24.8,85.90972005541632,0,42.95486002770816" fill="#222" fill-opacity="0.046" stroke="#000" stroke-opacity="0.02" transform="translate(173.60000000000002, 515.4583203324979)"></polyline><polyline points="0,42.95486002770816,24.8,0,74.4,0,99.2,42.95486002770816,74.4,85.90972005541632,24.8,85.90972005541632,0,42.95486002770816" fill="#ddd" fill-opacity="0.14133333333333334" stroke="#000" stroke-opacity="0.02" transform="translate(248.00000000000003, -42.95486002770816)"></polyline><polyline points="0,42.95486002770816,24.8,0,74.4,0,99.2,42.95486002770816,74.4,85.90972005541632,24.8,85.90972005541632,0,42.95486002770816" fill="#ddd" fill-opacity="0.14133333333333334" stroke="#000" stroke-opacity="0.02" transform="translate(248.00000000000003, 472.50346030478977)"></polyline><polyline points="0,42.95486002770816,24.8,0,74.4,0,99.2,42.95486002770816,74.4,85.90972005541632,24.8,85.90972005541632,0,42.95486002770816" fill="#ddd" fill-opacity="0.12400000000000001" stroke="#000" stroke-opacity="0.02" transform="translate(322.4, 0.0)"></polyline><polyline points="0,42.95486002770816,24.8,0,74.4,0,99.2,42.95486002770816,74.4,85.90972005541632,24.8,85.90972005541632,0,42.95486002770816" fill="#ddd" fill-opacity="0.12400000000000001" stroke="#000" stroke-opacity="0.02" transform="translate(322.4, 515.4583203324979)"></polyline><polyline points="0,42.95486002770816,24.8,0,74.4,0,99.2,42.95486002770816,74.4,85.90972005541632,24.8,85.90972005541632,0,42.95486002770816" fill="#222" fill-opacity="0.15" stroke="#000" stroke-opacity="0.02" transform="translate(-49.6, 42.95486002770816)"></polyline><polyline points="0,42.95486002770816,24.8,0,74.4,0,99.2,42.95486002770816,74.4,85.90972005541632,24.8,85.90972005541632,0,42.95486002770816" fill="#222" fill-opacity="0.15" stroke="#000" stroke-opacity="0.02" transform="translate(396.8, 42.95486002770816)"></polyline><polyline points="0,42.95486002770816,24.8,0,74.4,0,99.2,42.95486002770816,74.4,85.90972005541632,24.8,85.90972005541632,0,42.95486002770816" fill="#222" fill-opacity="0.098" stroke="#000" stroke-opacity="0.02" transform="translate(24.800000000000004, 85.90972005541633)"></polyline><polyline points="0,42.95486002770816,24.8,0,74.4,0,99.2,42.95486002770816,74.4,85.90972005541632,24.8,85.90972005541632,0,42.95486002770816" fill="#ddd" fill-opacity="0.14133333333333334" stroke="#000" stroke-opacity="0.02" transform="translate(99.20000000000002, 42.95486002770816)"></polyline><polyline points="0,42.95486002770816,24.8,0,74.4,0,99.2,42.95486002770816,74.4,85.90972005541632,24.8,85.90972005541632,0,42.95486002770816" fill="#222" fill-opacity="0.13266666666666665" stroke="#000" stroke-opacity="0.02" transform="translate(173.60000000000002, 85.90972005541633)"></polyline><polyline points="0,42.95486002770816,24.8,0,74.4,0,99.2,42.95486002770816,74.4,85.90972005541632,24.8,85.90972005541632,0,42.95486002770816" fill="#ddd" fill-opacity="0.05466666666666667" stroke="#000" stroke-opacity="0.02" transform="translate(248.00000000000003, 42.95486002770816)"></polyline><polyline points="0,42.95486002770816,24.8,0,74.4,0,99.2,42.95486002770816,74.4,85.90972005541632,24.8,85.90972005541632,0,42.95486002770816" fill="#222" fill-opacity="0.028666666666666667" stroke="#000" stroke-opacity="0.02" transform="translate(322.4, 85.90972005541633)"></polyline><polyline points="0,42.95486002770816,24.8,0,74.4,0,99.2,42.95486002770816,74.4,85.90972005541632,24.8,85.90972005541632,0,42.95486002770816" fill="#222" fill-opacity="0.13266666666666665" stroke="#000" stroke-opacity="0.02" transform="translate(-49.6, 128.86458008312448)"></polyline><polyline points="0,42.95486002770816,24.8,0,74.4,0,99.2,42.95486002770816,74.4,85.90972005541632,24.8,85.90972005541632,0,42.95486002770816" fill="#222" fill-opacity="0.13266666666666665" stroke="#000" stroke-opacity="0.02" transform="translate(396.8, 128.86458008312448)"></polyline><polyline points="0,42.95486002770816,24.8,0,74.4,0,99.2,42.95486002770816,74.4,85.90972005541632,24.8,85.90972005541632,0,42.95486002770816" fill="#222" fill-opacity="0.15" stroke="#000" stroke-opacity="0.02" transform="translate(24.800000000000004, 171.81944011083263)"></polyline><polyline points="0,42.95486002770816,24.8,0,74.4,0,99.2,42.95486002770816,74.4,85.90972005541632,24.8,85.90972005541632,0,42.95486002770816" fill="#ddd" fill-opacity="0.02" stroke="#000" stroke-opacity="0.02" transform="translate(99.20000000000002, 128.86458008312448)"></polyline><polyline points="0,42.95486002770816,24.8,0,74.4,0,99.2,42.95486002770816,74.4,85.90972005541632,24.8,85.90972005541632,0,42.95486002770816" fill="#222" fill-opacity="0.046" stroke="#000" stroke-opacity="0.02" transform="translate(173.60000000000002, 171.81944011083263)"></polyline><polyline points="0,42.95486002770816,24.8,0,74.4,0,99.2,42.95486002770816,74.4,85.90972005541632,24.8,85.90972005541632,0,42.95486002770816" fill="#222" fill-opacity="0.028666666666666667" stroke="#000" stroke-opacity="0.02" transform="translate(248.00000000000003, 128.86458008312448)"></polyline><polyline points="0,42.95486002770816,24.8,0,74.4,0,99.2,42.95486002770816,74.4,85.90972005541632,24.8,85.90972005541632,0,42.95486002770816" fill="#222" fill-opacity="0.028666666666666667" stroke="#000" stroke-opacity="0.02" transform="translate(322.4, 171.81944011083263)"></polyline><polyline points="0,42.95486002770816,24.8,0,74.4,0,99.2,42.95486002770816,74.4,85.90972005541632,24.8,85.90972005541632,0,42.95486002770816" fill="#222" fill-opacity="0.11533333333333334" stroke="#000" stroke-opacity="0.02" transform="translate(-49.6, 214.7743001385408)"></polyline><polyline points="0,42.95486002770816,24.8,0,74.4,0,99.2,42.95486002770816,74.4,85.90972005541632,24.8,85.90972005541632,0,42.95486002770816" fill="#222" fill-opacity="0.11533333333333334" stroke="#000" stroke-opacity="0.02" transform="translate(396.8, 214.7743001385408)"></polyline><polyline points="0,42.95486002770816,24.8,0,74.4,0,99.2,42.95486002770816,74.4,85.90972005541632,24.8,85.90972005541632,0,42.95486002770816" fill="#222" fill-opacity="0.098" stroke="#000" stroke-opacity="0.02" transform="translate(24.800000000000004, 257.72916016624896)"></polyline><polyline points="0,42.95486002770816,24.8,0,74.4,0,99.2,42.95486002770816,74.4,85.90972005541632,24.8,85.90972005541632,0,42.95486002770816" fill="#222" fill-opacity="0.13266666666666665" stroke="#000" stroke-opacity="0.02" transform="translate(99.20000000000002, 214.7743001385408)"></polyline><polyline points="0,42.95486002770816,24.8,0,74.4,0,99.2,42.95486002770816,74.4,85.90972005541632,24.8,85.90972005541632,0,42.95486002770816" fill="#222" fill-opacity="0.15" stroke="#000" stroke-opacity="0.02" transform="translate(173.60000000000002, 257.72916016624896)"></polyline><polyline points="0,42.95486002770816,24.8,0,74.4,0,99.2,42.95486002770816,74.4,85.90972005541632,24.8,85.90972005541632,0,42.95486002770816" fill="#222" fill-opacity="0.028666666666666667" stroke="#000" stroke-opacity="0.02" transform="translate(248.00000000000003, 214.7743001385408)"></polyline><polyline points="0,42.95486002770816,24.8,0,74.4,0,99.2,42.95486002770816,74.4,85.90972005541632,24.8,85.90972005541632,0,42.95486002770816" fill="#222" fill-opacity="0.046" stroke="#000" stroke-opacity="0.02" transform="translate(322.4, 257.72916016624896)"></polyline><polyline points="0,42.95486002770816,24.8,0,74.4,0,99.2,42.95486002770816,74.4,85.90972005541632,24.8,85.90972005541632,0,42.95486002770816" fill="#ddd" fill-opacity="0.12400000000000001" stroke="#000" stroke-opacity="0.02" transform="translate(-49.6, 300.6840201939571)"></polyline><polyline points="0,42.95486002770816,24.8,0,74.4,0,99.2,42.95486002770816,74.4,85.90972005541632,24.8,85.90972005541632,0,42.95486002770816" fill="#ddd" fill-opacity="0.12400000000000001" stroke="#000" stroke-opacity="0.02" transform="translate(396.8, 300.6840201939571)"></polyline><polyline points="0,42.95486002770816,24.8,0,74.4,0,99.2,42.95486002770816,74.4,85.90972005541632,24.8,85.90972005541632,0,42.95486002770816" fill="#ddd" fill-opacity="0.12400000000000001" stroke="#000" stroke-opacity="0.02" transform="translate(24.800000000000004, 343.63888022166526)"></polyline><polyline points="0,42.95486002770816,24.8,0,74.4,0,99.2,42.95486002770816,74.4,85.90972005541632,24.8,85.90972005541632,0,42.95486002770816" fill="#ddd" fill-opacity="0.07200000000000001" stroke="#000" stroke-opacity="0.02" transform="translate(99.20000000000002, 300.6840201939571)"></polyline><polyline points="0,42.95486002770816,24.8,0,74.4,0,99.2,42.95486002770816,74.4,85.90972005541632,24.8,85.90972005541632,0,42.95486002770816" fill="#ddd" fill-opacity="0.12400000000000001" stroke="#000" stroke-opacity="0.02" transform="translate(173.60000000000002, 343.63888022166526)"></polyline><polyline points="0,42.95486002770816,24.8,0,74.4,0,99.2,42.95486002770816,74.4,85.90972005541632,24.8,85.90972005541632,0,42.95486002770816" fill="#222" fill-opacity="0.046" stroke="#000" stroke-opacity="0.02" transform="translate(248.00000000000003, 300.6840201939571)"></polyline><polyline points="0,42.95486002770816,24.8,0,74.4,0,99.2,42.95486002770816,74.4,85.90972005541632,24.8,85.90972005541632,0,42.95486002770816" fill="#222" fill-opacity="0.11533333333333334" stroke="#000" stroke-opacity="0.02" transform="translate(322.4, 343.63888022166526)"></polyline><polyline points="0,42.95486002770816,24.8,0,74.4,0,99.2,42.95486002770816,74.4,85.90972005541632,24.8,85.90972005541632,0,42.95486002770816" fill="#ddd" fill-opacity="0.07200000000000001" stroke="#000" stroke-opacity="0.02" transform="translate(-49.6, 386.5937402493734)"></polyline><polyline points="0,42.95486002770816,24.8,0,74.4,0,99.2,42.95486002770816,74.4,85.90972005541632,24.8,85.90972005541632,0,42.95486002770816" fill="#ddd" fill-opacity="0.07200000000000001" stroke="#000" stroke-opacity="0.02" transform="translate(396.8, 386.5937402493734)"></polyline><polyline points="0,42.95486002770816,24.8,0,74.4,0,99.2,42.95486002770816,74.4,85.90972005541632,24.8,85.90972005541632,0,42.95486002770816" fill="#ddd" fill-opacity="0.02" stroke="#000" stroke-opacity="0.02" transform="translate(24.800000000000004, 429.54860027708156)"></polyline><polyline points="0,42.95486002770816,24.8,0,74.4,0,99.2,42.95486002770816,74.4,85.90972005541632,24.8,85.90972005541632,0,42.95486002770816" fill="#222" fill-opacity="0.08066666666666666" stroke="#000" stroke-opacity="0.02" transform="translate(99.20000000000002, 386.5937402493734)"></polyline><polyline points="0,42.95486002770816,24.8,0,74.4,0,99.2,42.95486002770816,74.4,85.90972005541632,24.8,85.90972005541632,0,42.95486002770816" fill="#ddd" fill-opacity="0.08933333333333333" stroke="#000" stroke-opacity="0.02" transform="translate(173.60000000000002, 429.54860027708156)"></polyline><polyline points="0,42.95486002770816,24.8,0,74.4,0,99.2,42.95486002770816,74.4,85.90972005541632,24.8,85.90972005541632,0,42.95486002770816" fill="#222" fill-opacity="0.13266666666666665" stroke="#000" stroke-opacity="0.02" transform="translate(248.00000000000003, 386.5937402493734)"></polyline><polyline points="0,42.95486002770816,24.8,0,74.4,0,99.2,42.95486002770816,74.4,85.90972005541632,24.8,85.90972005541632,0,42.95486002770816" fill="#ddd" fill-opacity="0.03733333333333333" stroke="#000" stroke-opacity="0.02" transform="translate(322.4, 429.54860027708156)"></polyline></svg>