<svg xmlns="http://www.w3.org/2000/svg" width="344" height="344"><polyline points="0, 0, 43.0, 43.0, 0, 43.0, 0, 0" stroke="#000" stroke-opacity="0.02" fill-opacity="0.12400000000000001" fill="#ddd" transform="translate(0.0, 43.0) scale(1, -1)"></polyline><polyline points="0, 0, 43.0, 43.0, 0, 43.0, 0, 0" stroke="#000" stroke-opacity="0.02" fill-opacity="0.12400000000000001" fill="#ddd" transform="translate(86.0, 43.0) scale(-1, -1)"></polyline><polyline points="0, 0, 43.0, 43.0, 0, 43.0, 0, 0" stroke="#000" stroke-opacity="0.02" fill-opacity="0.12400000000000001" fill="#ddd" transform="translate(0.0, 43.0) scale(1, 1)"></polyline><polyline points="0, 0, 43.0, 43.0, 0, 43.0, 0, 0" stroke="#000" stroke-opacity="0.02" fill-opacity="0.12400000000000001" fill="#ddd" transform="translate(86.0, 43.0) scale(-1, 1)"></polyline><polyline points="0, 0, 43.0, 43.0, 0, 43.0, 0, 0" stroke="#000" stroke-opacity="0.02" fill-opacity="0.02" fill="#ddd" transform="translate(129.0, 0.0) scale(-1, 1)"></polyline><polyline points="0, 0, 43.0, 43.0, 0, 43.0, 0, 0" stroke="#000" stroke-opacity="0.02" fill-opacity="0.02" fill="#ddd" transform="translate(129.0, 86.0) scale(1, -1)"></polyline><polyline points="0, 0, 43.0, 43.0, 0, 43.0, 0, 0" stroke="#000" stroke-opacity="0.02" fill-opacity="0.06333333333333334" fill="#222" transform="translate(129.0, 86.0) scale(-1, -1)"></polyline><polyline points="0, 0, 43.0, 43.0, 0, 43.0, 0, 0" stroke="#000" stroke-opacity="0.02" fill-opacity="0.06333333333333334" fill="#222" transform="translate(129.0, 0.0) scale(1, 1)"></polyline><polyline points="0, 0, 43.0, 43.0, 0, 43.0, 0, 0" stroke="#000" stroke-opacity="0.02" fill-opacity="0.06333333333333334" fill="#222" transform="translate(172.0, 43.0) scale(1, -1)"></polyline><polyline points="0, 0, 43.0, 43.0, 0, 43.0, 0, 0" stroke="#000" stroke-opacity="0.02" fill-opacity="0.06333333333333334" fill="#222" transform="translate(258.0, 43.0) scale(-1, -1)"></polyline><polyline points="0, 0, 43.0, 43.0, 0, 43.0, 0, 0" stroke="#000" stroke-opacity="0.02" fill-opacity="0.06333333333333334" fill="#222" transform="translate(172.0, 43.0) scale(1, 1)"></polyline><polyline points="0, 0, 43.0, 43.0, 0, 43.0, 0, 0" stroke="#000" stroke-opacity="0.02" fill-opacity="0.06333333333333334" fill="#222" transform="translate(258.0, 43.0) scale(-1, 1)"></polyline><polyline points="0, 0, 43.0, 43.0, 0, 43.0, 0, 0" stroke="#000" stroke-opacity="0.02" fill-opacity="0.046" fill="#222" transform="translate(301.0, 0.0) scale(-1, 1)"></polyline><polyline points="0, 0, 43.0, 43.0, 0, 43.0, 0, 0" stroke="#000" stroke-opacity="0.02" fill-opacity="0.046" fill="#222" transform="translate(301.0, 86.0) scale(1, -1)"></polyline><polyline points="0, 0, 43.0, 43.0, 0, 43.0, 0, 0" stroke="#000" stroke-opacity="0.02" fill-opacity="0.14133333333333334" fill="#ddd" transform="translate(301.0, 86.0) scale(-1, -1)"></polyline><polyline points="0, 0, 43.0, 43.0, 0, 43.0, 0, 0" stroke="#000" stroke-opacity="0.02" fill-opacity="0.14133333333333334" fill="#ddd" transform="translate(301.0, 0.0) scale(1, 1)"></polyline><polyline points="0, 0, 43.0, 43.0, 0, 43.0, 0, 0" stroke="#000" stroke-opacity="0.02" fill-opacity="0.14133333333333334" fill="#ddd" transform="translate(43.0, 86.0) scale(-1, 1)"></polyline><polyline points="0, 0, 43.0, 43.0, 0, 43.0, 0, 0" stroke="#000" stroke-opacity="0.02" fill-opacity="0.14133333333333334" fill="#ddd" transform="translate(43.0, 172.0) scale(1, -1)"></polyline><polyline points="0, 0, 43.0, 43.0, 0, 43.0, 0, 0" stroke="#000" stroke-opacity="0.02" fill-opacity="0.12400000000000001" fill="#ddd" transform="translate(43.0, 172.0) scale(-1, -1)"></polyline><polyline points="0, 0, 43.0, 43.0, 0, 43.0, 0, 0" stroke="#000" stroke-opacity="0.02" fill-opacity="0.12400000000000001" fill="#ddd" transform="translate(43.0, 86.0) scale(1, 1)"></polyline><polyline points="0, 0, 43.0, 43.0, 0, 43.0, 0, 0" stroke="#000" stroke-opacity="0.02" fill-opacity="0.12400000000000001" fill="#ddd" transform="translate(86.0, 129.0) scale(1, -1)"></polyline><polyline points="0, 0, 43.0, 43.0, 0, 43.0, 0, 0" stroke="#000" stroke-opacity="0.02" fill-opacity="0.12400000000000001" fill="#ddd" transform="translate(172.0, 129.0) scale(-1, -1)"></polyline><polyline points="0, 0, 43.0, 43.0, 0, 43.0, 0, 0" stroke="#000" stroke-opacity="0.02" fill-opacity="0.12400000000000001" fill="#ddd" transform="translate(86.0, 129.0) scale(1, 1)"></polyline><polyline points="0, 0, 43.0, 43.0, 0, 43.0, 0, 0" stroke="#000" stroke-opacity="0.02" fill-opacity="0.12400000000000001" fill="#ddd" transform="translate(172.0, 129.0) scale(-1, 1)"></polyline><polyline points="0, 0, 43.0, 43.0, 0, 43.0, 0, 0" stroke="#000" stroke-opacity="0.02" fill-opacity="0.15" fill="#222" transform="translate(215.0, 86.0) scale(-1, 1)"></polyline><polyline points="0, 0, 43.0, 43.0, 0, 43.0, 0, 0" stroke="#000" stroke-opacity="0.02" fill-opacity="0.15" fill="#222" transform="translate(215.0, 172.0) scale(1, -1)"></polyline><polyline points="0, 0, 43.0, 43.0, 0, 43.0, 0, 0" stroke="#000" stroke-opacity="0.02" fill-opacity="0.098" fill="#222" transform="translate(215.0, 172.0) scale(-1, -1)"></polyline><polyline points="0, 0, 43.0, 43.0, 0, 43.0, 0, 0" stroke="#000" stroke-opacity="0.02" fill-opacity="0.098" fill="#222" transform="translate(215.0, 86.0) scale(1, 1)"></polyline><polyline points="0, 0, 43.0, 43.0, 0, 43.0, 0, 0" stroke="#000" stroke-opacity="0.02" fill-opacity="0.098" fill="#222" transform="translate(258.0, 129.0) scale(1, -1)"></polyline><polyline points="0, 0, 43.0, 43.0, 0, 43.0, 0, 0" stroke="#000" stroke-opacity="0.02" fill-opacity="0.098" fill="#222" transform="translate(344.0, 129.0) scale(-1, -1)"></polyline><polyline points="0, 0, 43.0, 43.0, 0, 43.0, 0, 0" stroke="#000" stroke-opacity="0.02" fill-opacity="0.098" fill="#222" transform="translate(258.0, 129.0) scale(1, 1)"></polyline><polyline points="0, 0, 43.0, 43.0, 0, 43.0, 0, 0" stroke="#000" stroke-opacity="0.02" fill-opacity="0.098" fill="#222" transform="translate(344.0, 129.0) scale(-1, 1)"></polyline><polyline points="0, 0, 43.0, 43.0, 0, 43.0, 0, 0" stroke="#000" stroke-opacity="0.02" fill-opacity="0.14133333333333334" fill="#ddd" transform="translate(0.0, 215.0) scale(1, -1)"></polyline><polyline points="0, 0, 43.0, 43.0, 0, 43.0, 0, 0" stroke="#000" stroke-opacity="0.02" fill-opacity="0.14133333333333334" fill="#ddd" transform="translate(86.0, 215.0) scale(-1, -1)"></polyline><polyline points="0, 0, 43.0, 43.0, 0, 43.0, 0, 0" stroke="#000" stroke-opacity="0.02" fill-opacity="0.14133333333333334" fill="#ddd" transform="translate(0.0, 215.0) scale(1, 1)"></polyline><polyline points="0, 0, 43.0, 43.0, 0, 43.0, 0, 0" stroke="#000" stroke-opacity="0.02" fill-opacity="0.14133333333333334" fill="#ddd" transform="translate(86.0, 215.0) scale(-1, 1)"></polyline><polyline points="0, 0, 43.0, 43.0, 0, 43.0, 0, 0" stroke="#000" stroke-opacity="0.02" fill-opacity="0.13266666666666665" fill="#222" transform="translate(129.0, 172.0) scale(-1, 1)"></polyline><polyline points="0, 0, 43.0, 43.0, 0, 43.0, 0, 0" stroke="#000" stroke-opacity="0.02" fill-opacity="0.13266666666666665" fill="#222" transform="translate(129.0, 258.0) scale(1, -1)"></polyline><polyline points="0, 0, 43.0, 43.0, 0, 43.0, 0, 0" stroke="#000" stroke-opacity="0.02" fill-opacity="0.05466666666666667" fill="#ddd" transform="translate(129.0, 258.0) scale(-1, -1)"></polyline><polyline points="0, 0, 43.0, 43.0, 0, 43.0, 0, 0" stroke="#000" stroke-opacity="0.02" fill-opacity="0.05466666666666667" fill="#ddd" transform="translate(129.0, 172.0) scale(1, 1)"></polyline><polyline points="0, 0, 43.0, 43.0, 0, 43.0, 0, 0" stroke="#000" stroke-opacity="0.02" fill-opacity="0.05466666666666667" fill="#ddd" transform="translate(172.0, 215.0) scale(1, -1)"></polyline><polyline points="0, 0, 43.0, 43.0, 0, 43.0, 0, 0" stroke="#000" stroke-opacity="0.02" fill-opacity="0.05466666666666667" fill="#ddd" transform="translate(258.0, 215.0) scale(-1, -1)"></polyline><polyline points="0, 0, 43.0, 43.0, 0, 43.0, 0, 0" stroke="#000" stroke-opacity="0.02" fill-opacity="0.05466666666666667" fill="#ddd" transform="translate(172.0, 215.0) scale(1, 1)"></polyline><polyline points="0, 0, 43.0, 43.0, 0, 43.0, 0, 0" stroke="#000" stroke-opacity="0.02" fill-opacity="0.05466666666666667" fill="#ddd" transform="translate(258.0, 215.0) scale(-1, 1)"></polyline><polyline points="0, 0, 43.0, 43.0, 0, 43.0, 0, 0" stroke="#000" stroke-opacity="0.02" fill-opacity="0.028666666666666667" fill="#222" transform="translate(301.0, 172.0) scale(-1, 1)"></polyline><polyline points="0, 0, 43.0, 43.0, 0, 43.0, 0, 0" stroke="#000" stroke-opacity="0.02" fill-opacity="0.028666666666666667" fill="#222" transform="translate(301.0, 258.0) scale(1, -1)"></polyline><polyline points="0, 0, 43.0, 43.0, 0, 43.0, 0, 0" stroke="#000" stroke-opacity="0.02" fill-opacity="0.13266666666666665" fill="#222" transform="translate(301.0, 258.0) scale(-1, -1)"></polyline><polyline points="0, 0, 43.0, 43.0, 0, 43.0, 0, 0" stroke="#000" stroke-opacity="0.02" fill-opacity="0.13266666666666665" fill="#222" transform="translate(301.0, 172.0) scale(1, 1)"></polyline><polyline points="0, 0, 43.0, 43.0, 0, 43.0, 0, 0" stroke="#000" stroke-opacity="0.02" fill-opacity="0.13266666666666665" fill="#222" transform="translate(43.0, 258.0) scale(-1, 1)"></polyline><polyline points="0, 0, 43.0, 43.0, 0, 43.0, 0, 0" stroke="#000" stroke-opacity="0.02" fill-opacity="0.13266666666666665" fill="#222" transform="translate(43.0, 344.0) scale(1, -1)"></polyline><polyline points="0, 0, 43.0, 43.0, 0, 43.0, 0, 0" stroke="#000" stroke-opacity="0.02" fill-opacity="0.15" fill="#222" transform="translate(43.0, 344.0) scale(-1, -1)"></polyline><polyline points="0, 0, 43.0, 43.0, 0, 43.0, 0, 0" stroke="#000" stroke-opacity="0.02" fill-opacity="0.15" fill="#222" transform="translate(43.0, 258.0) scale(1, 1)"></polyline><polyline points="0, 0, 43.0, 43.0, 0, 43.0, 0, 0" stroke="#000" stroke-opacity="0.02" fill-opacity="0.15" fill="#222" transform="translate(86.0, 301.0) scale(1, -1)"></polyline><polyline points="0, 0, 43.0, 43.0, 0, 43.0, 0, 0" stroke="#000" stroke-opacity="0.02" fill-opacity="0.15" fill="#222" transform="translate(172.0, 301.0) scale(-1, -1)"></polyline><polyline points="0, 0, 43.0, 43.0, 0, 43.0, 0, 0" stroke="#000" stroke-opacity="0.02" fill-opacity="0.15" fill="#222" transform="translate(86.0, 301.0) scale(1, 1)"></polyline><polyline points="0, 0, 43.0, 43.0, 0, 43.0, 0, 0" stroke="#000" stroke-opacity="0.02" fill-opacity="0.15" fill="#222" transform="translate(172.0, 301.0) scale(-1, 1)"></polyline><polyline points="0, 0, 43.0, 43.0, 0, 43.0, 0, 0" stroke="#000" stroke-opacity="0.02" fill-opacity="0.02" fill="#ddd" transform="translate(215.0, 258.0) scale(-1, 1)"></polyline><polyline points="0, 0, 43.0, 43.0, 0, 43.0, 0, 0" stroke="#000" stroke-opacity="0.02" fill-opacity="0.02" fill="#ddd" transform="translate(215.0, 344.0) scale(1, -1)"></polyline><polyline points="0, 0, 43.0, 43.0, 0, 43.0, 0, 0" stroke="#000" stroke-opacity="0.02" fill-opacity="0.046" fill="#222" transform="translate(215.0, 344.0) scale(-1, -1)"></polyline><polyline points="0, 0, 43.0, 43.0, 0, 43.0, 0, 0" stroke="#000" stroke-opacity="0.02" fill-opacity="0.046" fill="#222" transform="translate(215.0, 258.0) scale(1, 1)"></polyline><polyline points="0, 0, 43.0, 43.0, 0, 43.0, 0, 0" stroke="#000" stroke-opacity="0.02" fill-opacity="0.046" fill="#222" transform="translate(258.0, 301.0) scale(1, -1)"></polyline><polyline points="0, 0, 43.0, 43.0, 0, 43.0, 0, 0" stroke="#000" stroke-opacity="0.02" fill-opacity="0.046" fill="#222" transform="translate(344.0, 301.0) scale(-1, -1)"></polyline><polyline points="0, 0, 43.0, 43.0, 0, 43.0, 0, 0" stroke="#000" stroke-opacity="0.02" fill-opacity="0.046" fill="#222" transform="translate(258.0, 301.0) scale(1, 1)"></polyline><polyline points="0, 0, 43.0, 43.0, 0, 43.0, 0, 0" stroke="#000" stroke-opacity="0.02" fill-opacity="0.046" fill="#222" transform="translate(344.0, 301.0) scale(-1, 1)"></polyline></svg>