<svg xmlns="http://www.w3.org/2000/svg" width="300" height="300"><polyline points="16.5,0,33.5,0,50.0,16.5,50.0,33.5,33.5,50.0,16.5,50.0,0,33.5,0,16.5,16.5,0" fill="#ddd" fill-opacity="0.12400000000000001" stroke="#000" stroke-opacity="0.02" transform="translate(0.0, 0.0)"></polyline><polyline points="16.5,0,33.5,0,50.0,16.5,50.0,33.5,33.5,50.0,16.5,50.0,0,33.5,0,16.5,16.5,0" fill="#ddd" fill-opacity="0.02" stroke="#000" stroke-opacity="0.02" transform="translate(50.0, 0.0)"></polyline><polyline points="16.5,0,33.5,0,50.0,16.5,50.0,33.5,33.5,50.0,16.5,50.0,0,33.5,0,16.5,16.5,0" fill="#222" fill-opacity="0.06333333333333334" stroke="#000" stroke-opacity="0.02" transform="translate(100.0, 0.0)"></polyline><polyline points="16.5,0,33.5,0,50.0,16.5,50.0,33.5,33.5,50.0,16.5,50.0,0,33.5,0,16.5,16.5,0" fill="#222" fill-opacity="0.046" stroke="#000" stroke-opacity="0.02" transform="translate(150.0, 0.0)"></polyline><polyline points="16.5,0,33.5,0,50.0,16.5,50.0,33.5,33.5,50.0,16.5,50.0,0,33.5,0,16.5,16.5,0" fill="#ddd" fill-opacity="0.14133333333333334" stroke="#000" stroke-opacity="0.02" transform="translate(200.0, 0.0)"></polyline><polyline points="16.5,0,33.5,0,50.0,16.5,50.0,33.5,33.5,50.0,16.5,50.0,0,33.5,0,16.5,16.5,0" fill="#ddd" fill-opacity="0.12400000000000001" stroke="#000" stroke-opacity="0.02" transform="translate(250.0, 0.0)"></polyline><polyline points="16.5,0,33.5,0,50.0,16.5,50.0,33.5,33.5,50.0,16.5,50.0,0,33.5,0,16.5,16.5,0" fill="#222" fill-opacity="0.15" stroke="#000" stroke-opacity="0.02" transform="translate(0.0, 50.0)"></polyline><polyline points="16.5,0,33.5,0,50.0,16.5,50.0,33.5,33.5,50.0,16.5,50.0,0,33.5,0,16.5,16.5,0" fill="#222" fill-opacity="0.098" stroke="#000" stroke-opacity="0.02" transform="translate(50.0, 50.0)"></polyline><polyline points="16.5,0,33.5,0,50.0,16.5,50.0,33.5,33.5,50.0,16.5,50.0,0,33.5,0,16.5,16.5,0" fill="#ddd" fill-opacity="0.14133333333333334" stroke="#000" stroke-opacity="0.02" transform="translate(100.0, 50.0)"></polyline><polyline points="16.5,0,33.5,0,50.0,16.5,50.0,33.5,33.5,50.0,16.5,50.0,0,33.5,0,16.5,16.5,0" fill="#222" fill-opacity="0.13266666666666665" stroke="#000" stroke-opacity="0.02" transform="translate(150.0, 50.0)"></polyline><polyline points="16.5,0,33.5,0,50.0,16.5,50.0,33.5,33.5,50.0,16.5,50.0,0,33.5,0,16.5,16.5,0" fill="#ddd" fill-opacity="0.05466666666666667" stroke="#000" stroke-opacity="0.02" transform="translate(200.0, 50.0)"></polyline><polyline points="16.5,0,33.5,0,50.0,16.5,50.0,33.5,33.5,50.0,16.5,50.0,0,33.5,0,16.5,16.5,0" fill="#222" fill-opacity="0.028666666666666667" stroke="#000" stroke-opacity="0.02" transform="translate(250.0, 50.0)"></polyline><polyline points="16.5,0,33.5,0,50.0,16.5,50.0,33.5,33.5,50.0,16.5,50.0,0,33.5,0,16.5,16.5,0" fill="#222" fill-opacity="0.13266666666666665" stroke="#000" stroke-opacity="0.02" transform="translate(0.0, 100.0)"></polyline><polyline points="16.5,0,33.5,0,50.0,16.5,50.0,33.5,33.5,50.0,16.5,50.0,0,33.5,0,16.5,16.5,0" fill="#222" fill-opacity="0.15" stroke="#000" stroke-opacity="0.02" transform="translate(50.0, 100.0)"></polyline><polyline points="16.5,0,33.5,0,50.0,16.5,50.0,33.5,33.5,50.0,16.5,50.0,0,33.5,0,16.5,16.5,0" fill="#ddd" fill-opacity="0.02" stroke="#000" stroke-opacity="0.02" transform="translate(100.0, 100.0)"></polyline><polyline points="16.5,0,33.5,0,50.0,16.5,50.0,33.5,33.5,50.0,16.5,50.0,0,33.5,0,16.5,16.5,0" fill="#222" fill-opacity="0.046" stroke="#000" stroke-opacity="0.02" transform="translate(150.0, 100.0)"></polyline><polyline points="16.5,0,33.5,0,50.0,16.5,50.0,33.5,33.5,50.0,16.5,50.0,0,33.5,0,16.5,16.5,0" fill="#222" fill-opacity="0.028666666666666667" stroke="#000" stroke-opacity="0.02" transform="translate(200.0, 100.0)"></polyline><polyline points="16.5,0,33.5,0,50.0,16.5,50.0,33.5,33.5,50.0,16.5,50.0,0,33.5,0,16.5,16.5,0" fill="#222" fill-opacity="0.028666666666666667" stroke="#000" stroke-opacity="0.02" transform="translate(250.0, 100.0)"></polyline><polyline points="16.5,0,33.5,0,50.0,16.5,50.0,33.5,33.5,50.0,16.5,50.0,0,33.5,0,16.5,16.5,0" fill="#222" fill-opacity="0.11533333333333334" stroke="#000" stroke-opacity="0.02" transform="translate(0.0, 150.0)"></polyline><polyline points="16.5,0,33.5,0,50.0,16.5,50.0,33.5,33.5,50.0,16.5,50.0,0,33.5,0,16.5,16.5,0" fill="#222" fill-opacity="0.098" stroke="#000" stroke-opacity="0.02" transform="translate(50.0, 150.0)"></polyline><polyline points="16.5,0,33.5,0,50.0,16.5,50.0,33.5,33.5,50.0,16.5,50.0,0,33.5,0,16.5,16.5,0" fill="#222" fill-opacity="0.13266666666666665" stroke="#000" stroke-opacity="0.02" transform="translate(100.0, 150.0)"></polyline><polyline points="16.5,0,33.5,0,50.0,16.5,50.0,33.5,33.5,50.0,16.5,50.0,0,33.5,0,16.5,16.5,0" fill="#222" fill-opacity="0.15" stroke="#000" stroke-opacity="0.02" transform="translate(150.0, 150.0)"></polyline><polyline points="16.5,0,33.5,0,50.0,16.5,50.0,33.5,33.5,50.0,16.5,50.0,0,33.5,0,16.5,16.5,0" fill="#222" fill-opacity="0.028666666666666667" stroke="#000" stroke-opacity="0.02" transform="translate(200.0, 150.0)"></polyline><polyline points="16.5,0,33.5,0,50.0,16.5,50.0,33.5,33.5,50.0,16.5,50.0,0,33.5,0,16.5,16.5,0" fill="#222" fill-opacity="0.046" stroke="#000" stroke-opacity="0.02" transform="translate(250.0, 150.0)"></polyline><polyline points="16.5,0,33.5,0,50.0,16.5,50.0,33.5,33.5,50.0,16.5,50.0,0,33.5,0,16.5,16.5,0" fill="#ddd" fill-opacity="0.12400000000000001" stroke="#000" stroke-opacity="0.02" transform="translate(0.0, 200.0)"></polyline><polyline points="16.5,0,33.5,0,50.0,16.5,50.0,33.5,33.5,50.0,16.5,50.0,0,33.5,0,16.5,16.5,0" fill="#ddd" fill-opacity="0.12400000000000001" stroke="#000" stroke-opacity="0.02" transform="translate(50.0, 200.0)"></polyline><polyline points="16.5,0,33.5,0,50.0,16.5,50.0,33.5,33.5,50.0,16.5,50.0,0,33.5,0,16.5,16.5,0" fill="#ddd" fill-opacity="0.07200000000000001" stroke="#000" stroke-opacity="0.02" transform="translate(100.0, 200.0)"></polyline><polyline points="16.5,0,33.5,0,50.0,16.5,50.0,33.5,33.5,50.0,16.5,50.0,0,33.5,0,16.5,16.5,0" fill="#ddd" fill-opacity="0.12400000000000001" stroke="#000" stroke-opacity="0.02" transform="translate(150.0, 200.0)"></polyline><polyline points="16.5,0,33.5,0,50.0,16.5,50.0,33.5,33.5,50.0,16.5,50.0,0,33.5,0,16.5,16.5,0" fill="#222" fill-opacity="0.046" stroke="#000" stroke-opacity="0.02" transform="translate(200.0, 200.0)"></polyline><polyline points="16.5,0,33.5,0,50.0,16.5,50.0,33.5,33.5,50.0,16.5,50.0,0,33.5,0,16.5,16.5,0" fill="#222" fill-opacity="0.11533333333333334" stroke="#000" stroke-opacity="0.02" transform="translate(250.0, 200.0)"></polyline><polyline points="16.5,0,33.5,0,50.0,16.5,50.0,33.5,33.5,50.0,16.5,50.0,0,33.5,0,16.5,16.5,0" fill="#ddd" fill-opacity="0.07200000000000001" stroke="#000" stroke-opacity="0.02" transform="translate(0.0, 250.0)"></polyline><polyline points="16.5,0,33.5,0,50.0,16.5,50.0,33.5,33.5,50.0,16.5,50.0,0,33.5,0,16.5,16.5,0" fill="#ddd" fill-opacity="0.02" stroke="#000" stroke-opacity="0.02" transform="translate(50.0, 250.0)"></polyline><polyline points="16.5,0,33.5,0,50.0,16.5,50.0,33.5,33.5,50.0,16.5,50.0,0,33.5,0,16.5,16.5,0" fill="#222" fill-opacity="0.08066666666666666" stroke="#000" stroke-opacity="0.02" transform="translate(100.0, 250.0)"></polyline><polyline points="16.5,0,33.5,0,50.0,16.5,50.0,33.5,33.5,50.0,16.5,50.0,0,33.5,0,16.5,16.5,0" fill="#ddd" fill-opacity="0.08933333333333333" stroke="#000" stroke-opacity="0.02" transform="translate(150.0, 250.0)"></polyline><polyline points="16.5,0,33.5,0,50.0,16.5,50.0,33.5,33.5,50.0,16.5,50.0,0,33.5,0,16.5,16.5,0" fill="#222" fill-opacity="0.13266666666666665" stroke="#000" stroke-opacity="0.02" transform="translate(200.0, 250.0)"></polyline><polyline points="16.5,0,33.5,0,50.0,16.5,50.0,33.5,33.5,50.0,16.5,50.0,0,33.5,0,16.5,16.5,0" fill="#ddd" fill-opacity="0.03733333333333333" stroke="#000" stroke-opacity="0.02" transform="translate(250.0, 250.0)"></polyline></svg>