<svg xmlns="http://www.w3.org/2000/svg" width="495" height="495"><circle cx="0.0" cy="0.0" r="82.5" fill="#ddd" style="opacity:0.12400000000000001;"></circle><circle cx="495.0" cy="0.0" r="82.5" fill="#ddd" style="opacity:0.12400000000000001;"></circle><circle cx="0.0" cy="495.0" r="82.5" fill="#ddd" style="opacity:0.12400000000000001;"></circle><circle cx="495.0" cy="495.0" r="82.5" fill="#ddd" style="opacity:0.12400000000000001;"></circle><circle cx="82.5" cy="0.0" r="82.5" fill="#ddd" style="opacity:0.02;"></circle><circle cx="82.5" cy="495.0" r="82.5" fill="#ddd" style="opacity:0.02;"></circle><circle cx="165.0" cy="0.0" r="82.5" fill="#222" style="opacity:0.06333333333333334;"></circle><circle cx="165.0" cy="495.0" r="82.5" fill="#222" style="opacity:0.06333333333333334;"></circle><circle cx="247.5" cy="0.0" r="82.5" fill="#222" style="opacity:0.046;"></circle><circle cx="247.5" cy="495.0" r="82.5" fill="#222" style="opacity:0.046;"></circle><circle cx="330.0" cy="0.0" r="82.5" fill="#ddd" style="opacity:0.14133333333333334;"></circle><circle cx="330.0" cy="495.0" r="82.5" fill="#ddd" style="opacity:0.14133333333333334;"></circle><circle cx="412.5" cy="0.0" r="82.5" fill="#ddd" style="opacity:0.12400000000000001;"></circle><circle cx="412.5" cy="495.0" r="82.5" fill="#ddd" style="opacity:0.12400000000000001;"></circle><circle cx="0.0" cy="82.5" r="82.5" fill="#222" style="opacity:0.15;"></circle><circle cx="495.0" cy="82.5" r="82.5" fill="#222" style="opacity:0.15;"></circle><circle cx="82.5" cy="82.5" r="82.5" fill="#222" style="opacity:0.098;"></circle><circle cx="165.0" cy="82.5" r="82.5" fill="#ddd" style="opacity:0.14133333333333334;"></circle><circle cx="247.5" cy="82.5" r="82.5" fill="#222" style="opacity:0.13266666666666665;"></circle><circle cx="330.0" cy="82.5" r="82.5" fill="#ddd" style="opacity:0.05466666666666667;"></circle><circle cx="412.5" cy="82.5" r="82.5" fill="#222" style="opacity:0.028666666666666667;"></circle><circle cx="0.0" cy="165.0" r="82.5" fill="#222" style="opacity:0.13266666666666665;"></circle><circle cx="495.0" cy="165.0" r="82.5" fill="#222" style="opacity:0.13266666666666665;"></circle><circle cx="82.5" cy="165.0" r="82.5" fill="#222" style="opacity:0.15;"></circle><circle cx="165.0" cy="165.0" r="82.5" fill="#ddd" style="opacity:0.02;"></circle><circle cx="247.5" cy="165.0" r="82.5" fill="#222" style="opacity:0.046;"></circle><circle cx="330.0" cy="165.0" r="82.5" fill="#222" style="opacity:0.028666666666666667;"></circle><circle cx="412.5" cy="165.0" r="82.5" fill="#222" style="opacity:0.028666666666666667;"></circle><circle cx="0.0" cy="247.5" r="82.5" fill="#222" style="opacity:0.11533333333333334;"></circle><circle cx="495.0" cy="247.5" r="82.5" fill="#222" style="opacity:0.11533333333333334;"></circle><circle cx="82.5" cy="247.5" r="82.5" fill="#222" style="opacity:0.098;"></circle><circle cx="165.0" cy="247.5" r="82.5" fill="#222" style="opacity:0.13266666666666665;"></circle><circle cx="247.5" cy="247.5" r="82.5" fill="#222" style="opacity:0.15;"></circle><circle cx="330.0" cy="247.5" r="82.5" fill="#222" style="opacity:0.028666666666666667;"></circle><circle cx="412.5" cy="247.5" r="82.5" fill="#222" style="opacity:0.046;"></circle><circle cx="0.0" cy="330.0" r="82.5" fill="#ddd" style="opacity:0.12400000000000001;"></circle><circle cx="495.0" cy="330.0" r="82.5" fill="#ddd" style="opacity:0.12400000000000001;"></circle><circle cx="82.5" cy="330.0" r="82.5" fill="#ddd" style="opacity:0.12400000000000001;"></circle><circle cx="165.0" cy="330.0" r="82.5" fill="#ddd" style="opacity:0.07200000000000001;"></circle><circle cx="247.5" cy="330.0" r="82.5" fill="#ddd" style="opacity:0.12400000000000001;"></circle><circle cx="330.0" cy="330.0" r="82.5" fill="#222" style="opacity:0.046;"></circle><circle cx="412.5" cy="330.0" r="82.5" fill="#222" style="opacity:0.11533333333333334;"></circle><circle cx="0.0" cy="412.5" r="82.5" fill="#ddd" style="opacity:0.07200000000000001;"></circle><circle cx="495.0" cy="412.5" r="82.5" fill="#ddd" style="opacity:0.07200000000000001;"></circle><circle cx="82.5" cy="412.5" r="82.5" fill="#ddd" style="opacity:0.02;"></circle><circle cx="165.0" cy="412.5" r="82.5" fill="#222" style="opacity:0.08066666666666666;"></circle><circle cx="247.5" cy="412.5" r="82.5" fill="#ddd" style="opacity:0.08933333333333333;"></circle><circle cx="330.0" cy="412.5" r="82.5" fill="#222" style="opacity:0.13266666666666665;"></circle><circle cx="412.5" cy="412.5" r="82.5" fill="#ddd" style="opacity:0.03733333333333333;"></circle></svg>