<svg xmlns="http://www.w3.org/2000/svg" width="459" height="459"><rect x="0" y="17" width="100%" height="5" opacity="0.02" fill="#ddd"></rect><rect x="0" y="32" width="100%" height="8" opacity="0.046" fill="#222"></rect><rect x="0" y="59" width="100%" height="17" opacity="0.12400000000000001" fill="#ddd"></rect><rect x="0" y="96" width="100%" height="14" opacity="0.098" fill="#222"></rect><rect x="0" y="129" width="100%" height="18" opacity="0.13266666666666665" fill="#222"></rect><rect x="0" y="156" width="100%" height="6" opacity="0.028666666666666667" fill="#222"></rect><rect x="0" y="180" width="100%" height="20" opacity="0.15" fill="#222"></rect><rect x="0" y="205" width="100%" height="8" opacity="0.046" fill="#222"></rect><rect x="0" y="219" width="100%" height="6" opacity="0.028666666666666667" fill="#222"></rect><rect x="0" y="241" width="100%" height="14" opacity="0.098" fill="#222"></rect><rect x="0" y="273" width="100%" height="20" opacity="0.15" fill="#222"></rect><rect x="0" y="299" width="100%" height="8" opacity="0.046" fill="#222"></rect><rect x="0" y="324" width="100%" height="17" opacity="0.12400000000000001" fill="#ddd"></rect><rect x="0" y="352" width="100%" height="17" opacity="0.12400000000000001" fill="#ddd"></rect><rect x="0" y="377" width="100%" height="16" opacity="0.11533333333333334" fill="#222"></rect><rect x="0" y="404" width="100%" height="5" opacity="0.02" fill="#ddd"></rect><rect x="0" y="421" width="100%" height="13" opacity="0.08933333333333333" fill="#ddd"></rect><rect x="0" y="452" width="100%" height="7" opacity="0.03733333333333333" fill="#ddd"></rect><rect x="17" y="0" width="5" height="100%" opacity="0.02" fill="#ddd"></rect><rect x="32" y="0" width="8" height="100%" opacity="0.046" fill="#222"></rect><rect x="59" y="0" width="17" height="100%" opacity="0.12400000000000001" fill="#ddd"></rect><rect x="96" y="0" width="14" height="100%" opacity="0.098" fill="#222"></rect><rect x="129" y="0" width="18" height="100%" opacity="0.13266666666666665" fill="#222"></rect><rect x="156" y="0" width="6" height="100%" opacity="0.028666666666666667" fill="#222"></rect><rect x="180" y="0" width="20" height="100%" opacity="0.15" fill="#222"></rect><rect x="205" y="0" width="8" height="100%" opacity="0.046" fill="#222"></rect><rect x="219" y="0" width="6" height="100%" opacity="0.028666666666666667" fill="#222"></rect><rect x="241" y="0" width="14" height="100%" opacity="0.098" fill="#222"></rect><rect x="273" y="0" width="20" height="100%" opacity="0.15" fill="#222"></rect><rect x="299" y="0" width="8" height="100%" opacity="0.046" fill="#222"></rect><rect x="324" y="0" width="17" height="100%" opacity="0.12400000000000001" fill="#ddd"></rect><rect x="352" y="0" width="17" height="100%" opacity="0.12400000000000001" fill="#ddd"></rect><rect x="377" y="0" width="16" height="100%" opacity="0.11533333333333334" fill="#222"></rect><rect x="404" y="0" width="5" height="100%" opacity="0.02" fill="#ddd"></rect><rect x="421" y="0" width="13" height="100%" opacity="0.08933333333333333" fill="#ddd"></rect><rect x="452" y="0" width="7" height="100%" opacity="0.03733333333333333" fill="#ddd"></rect></svg>