<svg xmlns="http://www.w3.org/2000/svg" width="264" height="264"><g fill="#ddd" stroke="#000" stroke-opacity="0.02" style="fill-opacity:0.12400000000000001;" transform="translate(-22.0,-33.0)"><rect x="22.0" y="0" width="22.0" height="66.0"></rect><rect x="0" y="22.0" width="66.0" height="22.0"></rect></g><g fill="#ddd" stroke="#000" stroke-opacity="0.02" style="fill-opacity:0.12400000000000001;" transform="translate(242.0,-33.0)"><rect x="22.0" y="0" width="22.0" height="66.0"></rect><rect x="0" y="22.0" width="66.0" height="22.0"></rect></g><g fill="#ddd" stroke="#000" stroke-opacity="0.02" style="fill-opacity:0.12400000000000001;" transform="translate(-22.0,231.0)"><rect x="22.0" y="0" width="22.0" height="66.0"></rect><rect x="0" y="22.0" width="66.0" height="22.0"></rect></g><g fill="#ddd" stroke="#000" stroke-opacity="0.02" style="fill-opacity:0.12400000000000001;" transform="translate(242.0,231.0)"><rect x="22.0" y="0" width="22.0" height="66.0"></rect><rect x="0" y="22.0" width="66.0" height="22.0"></rect></g><g fill="#ddd" stroke="#000" stroke-opacity="0.02" style="fill-opacity:0.02;" transform="translate(22.0,-33.0)"><rect x="22.0" y="0" width="22.0" height="66.0"></rect><rect x="0" y="22.0" width="66.0" height="22.0"></rect></g><g fill="#ddd" stroke="#000" stroke-opacity="0.02" style="fill-opacity:0.02;" transform="translate(22.0,231.0)"><rect x="22.0" y="0" width="22.0" height="66.0"></rect><rect x="0" y="22.0" width="66.0" height="22.0"></rect></g><g fill="#222" stroke="#000" stroke-opacity="0.02" style="fill-opacity:0.06333333333333334;" transform="translate(66.0,-33.0)"><rect x="22.0" y="0" width="22.0" height="66.0"></rect><rect x="0" y="22.0" width="66.0" height="22.0"></rect></g><g fill="#222" stroke="#000" stroke-opacity="0.02" style="fill-opacity:0.06333333333333334;" transform="translate(66.0,231.0)"><rect x="22.0" y="0" width="22.0" height="66.0"></rect><rect x="0" y="22.0" width="66.0" height="22.0"></rect></g><g fill="#222" stroke="#000" stroke-opacity="0.02" style="fill-opacity:0.046;" transform="translate(110.0,-33.0)"><rect x="22.0" y="0" width="22.0" height="66.0"></rect><rect x="0" y="22.0" width="66.0" height="22.0"></rect></g><g fill="#222" stroke="#000" stroke-opacity="0.02" style="fill-opacity:0.046;" transform="translate(110.0,231.0)"><rect x="22.0" y="0" width="22.0" height="66.0"></rect><rect x="0" y="22.0" width="66.0" height="22.0"></rect></g><g fill="#ddd" stroke="#000" stroke-opacity="0.02" style="fill-opacity:0.14133333333333334;" transform="translate(154.0,-33.0)"><rect x="22.0" y="0" width="22.0" height="66.0"></rect><rect x="0" y="22.0" width="66.0" height="22.0"></rect></g><g fill="#ddd" stroke="#000" stroke-opacity="0.02" style="fill-opacity:0.14133333333333334;" transform="translate(154.0,231.0)"><rect x="22.0" y="0" width="22.0" height="66.0"></rect><rect x="0" y="22.0" width="66.0" height="22.0"></rect></g><g fill="#ddd" stroke="#000" stroke-opacity="0.02" style="fill-opacity:0.12400000000000001;" transform="translate(198.0,-33.0)"><rect x="22.0" y="0" width="22.0" height="66.0"></rect><rect x="0" y="22.0" width="66.0" height="22.0"></rect></g><g fill="#ddd" stroke="#000" stroke-opacity="0.02" style="fill-opacity:0.12400000000000001;" transform="translate(198.0,231.0)"><rect x="22.0" y="0" width="22.0" height="66.0"></rect><rect x="0" y="22.0" width="66.0" height="22.0"></rect></g><g fill="#222" stroke="#000" stroke-opacity="0.02" style="fill-opacity:0.15;" transform="translate(0.0,11.0)"><rect x="22.0" y="0" width="22.0" height="66.0"></rect><rect x="0" y="22.0" width="66.0" height="22.0"></rect></g><g fill="#222" stroke="#000" stroke-opacity="0.02" style="fill-opacity:0.15;" transform="translate(264.0,11.0)"><rect x="22.0" y="0" width="22.0" height="66.0"></rect><rect x="0" y="22.0" width="66.0" height="22.0"></rect></g><g fill="#222" stroke="#000" stroke-opacity="0.02" style="fill-opacity:0.098;" transform="translate(44.0,11.0)"><rect x="22.0" y="0" width="22.0" height="66.0"></rect><rect x="0" y="22.0" width="66.0" height="22.0"></rect></g><g fill="#ddd" stroke="#000" stroke-opacity="0.02" style="fill-opacity:0.14133333333333334;" transform="translate(88.0,11.0)"><rect x="22.0" y="0" width="22.0" height="66.0"></rect><rect x="0" y="22.0" width="66.0" height="22.0"></rect></g><g fill="#222" stroke="#000" stroke-opacity="0.02" style="fill-opacity:0.13266666666666665;" transform="translate(132.0,11.0)"><rect x="22.0" y="0" width="22.0" height="66.0"></rect><rect x="0" y="22.0" width="66.0" height="22.0"></rect></g><g fill="#ddd" stroke="#000" stroke-opacity="0.02" style="fill-opacity:0.05466666666666667;" transform="translate(176.0,11.0)"><rect x="22.0" y="0" width="22.0" height="66.0"></rect><rect x="0" y="22.0" width="66.0" height="22.0"></rect></g><g fill="#222" stroke="#000" stroke-opacity="0.02" style="fill-opacity:0.028666666666666667;" transform="translate(220.0,11.0)"><rect x="22.0" y="0" width="22.0" height="66.0"></rect><rect x="0" y="22.0" width="66.0" height="22.0"></rect></g><g fill="#222" stroke="#000" stroke-opacity="0.02" style="fill-opacity:0.13266666666666665;" transform="translate(-22.0,55.0)"><rect x="22.0" y="0" width="22.0" height="66.0"></rect><rect x="0" y="22.0" width="66.0" height="22.0"></rect></g><g fill="#222" stroke="#000" stroke-opacity="0.02" style="fill-opacity:0.13266666666666665;" transform="translate(242.0,55.0)"><rect x="22.0" y="0" width="22.0" height="66.0"></rect><rect x="0" y="22.0" width="66.0" height="22.0"></rect></g><g fill="#222" stroke="#000" stroke-opacity="0.02" style="fill-opacity:0.15;" transform="translate(22.0,55.0)"><rect x="22.0" y="0" width="22.0" height="66.0"></rect><rect x="0" y="22.0" width="66.0" height="22.0"></rect></g><g fill="#ddd" stroke="#000" stroke-opacity="0.02" style="fill-opacity:0.02;" transform="translate(66.0,55.0)"><rect x="22.0" y="0" width="22.0" height="66.0"></rect><rect x="0" y="22.0" width="66.0" height="22.0"></rect></g><g fill="#222" stroke="#000" stroke-opacity="0.02" style="fill-opacity:0.046;" transform="translate(110.0,55.0)"><rect x="22.0" y="0" width="22.0" height="66.0"></rect><rect x="0" y="22.0" width="66.0" height="22.0"></rect></g><g fill="#222" stroke="#000" stroke-opacity="0.02" style="fill-opacity:0.028666666666666667;" transform="translate(154.0,55.0)"><rect x="22.0" y="0" width="22.0" height="66.0"></rect><rect x="0" y="22.0" width="66.0" height="22.0"></rect></g><g fill="#222" stroke="#000" stroke-opacity="0.02" style="fill-opacity:0.028666666666666667;" transform="translate(198.0,55.0)"><rect x="22.0" y="0" width="22.0" height="66.0"></rect><rect x="0" y="22.0" width="66.0" height="22.0"></rect></g><g fill="#222" stroke="#000" stroke-opacity="0.02" style="fill-opacity:0.11533333333333334;" transform="translate(0.0,99.0)"><rect x="22.0" y="0" width="22.0" height="66.0"></rect><rect x="0" y="22.0" width="66.0" height="22.0"></rect></g><g fill="#222" stroke="#000" stroke-opacity="0.02" style="fill-opacity:0.11533333333333334;" transform="translate(264.0,99.0)"><rect x="22.0" y="0" width="22.0" height="66.0"></rect><rect x="0" y="22.0" width="66.0" height="22.0"></rect></g><g fill="#222" stroke="#000" stroke-opacity="0.02" style="fill-opacity:0.098;" transform="translate(44.0,99.0)"><rect x="22.0" y="0" width="22.0" height="66.0"></rect><rect x="0" y="22.0" width="66.0" height="22.0"></rect></g><g fill="#222" stroke="#000" stroke-opacity="0.02" style="fill-opacity:0.13266666666666665;" transform="translate(88.0,99.0)"><rect x="22.0" y="0" width="22.0" height="66.0"></rect><rect x="0" y="22.0" width="66.0" height="22.0"></rect></g><g fill="#222" stroke="#000" stroke-opacity="0.02" style="fill-opacity:0.15;" transform="translate(132.0,99.0)"><rect x="22.0" y="0" width="22.0" height="66.0"></rect><rect x="0" y="22.0" width="66.0" height="22.0"></rect></g><g fill="#222" stroke="#000" stroke-opacity="0.02" style="fill-opacity:0.028666666666666667;" transform="translate(176.0,99.0)"><rect x="22.0" y="0" width="22.0" height="66.0"></rect><rect x="0" y="22.0" width="66.0" height="22.0"></rect></g><g fill="#222" stroke="#000" stroke-opacity="0.02" style="fill-opacity:0.046;" transform="translate(220.0,99.0)"><rect x="22.0" y="0" width="22.0" height="66.0"></rect><rect x="0" y="22.0" width="66.0" height="22.0"></rect></g><g fill="#ddd" stroke="#000" stroke-opacity="0.02" style="fill-opacity:0.12400000000000001;" transform="translate(-22.0,143.0)"><rect x="22.0" y="0" width="22.0" height="66.0"></rect><rect x="0" y="22.0" width="66.0" height="22.0"></rect></g><g fill="#ddd" stroke="#000" stroke-opacity="0.02" style="fill-opacity:0.12400000000000001;" transform="translate(242.0,143.0)"><rect x="22.0" y="0" width="22.0" height="66.0"></rect><rect x="0" y="22.0" width="66.0" height="22.0"></rect></g><g fill="#ddd" stroke="#000" stroke-opacity="0.02" style="fill-opacity:0.12400000000000001;" transform="translate(22.0,143.0)"><rect x="22.0" y="0" width="22.0" height="66.0"></rect><rect x="0" y="22.0" width="66.0" height="22.0"></rect></g><g fill="#ddd" stroke="#000" stroke-opacity="0.02" style="fill-opacity:0.07200000000000001;" transform="translate(66.0,143.0)"><rect x="22.0" y="0" width="22.0" height="66.0"></rect><rect x="0" y="22.0" width="66.0" height="22.0"></rect></g><g fill="#ddd" stroke="#000" stroke-opacity="0.02" style="fill-opacity:0.12400000000000001;" transform="translate(110.0,143.0)"><rect x="22.0" y="0" width="22.0" height="66.0"></rect><rect x="0" y="22.0" width="66.0" height="22.0"></rect></g><g fill="#222" stroke="#000" stroke-opacity="0.02" style="fill-opacity:0.046;" transform="translate(154.0,143.0)"><rect x="22.0" y="0" width="22.0" height="66.0"></rect><rect x="0" y="22.0" width="66.0" height="22.0"></rect></g><g fill="#222" stroke="#000" stroke-opacity="0.02" style="fill-opacity:0.11533333333333334;" transform="translate(198.0,143.0)"><rect x="22.0" y="0" width="22.0" height="66.0"></rect><rect x="0" y="22.0" width="66.0" height="22.0"></rect></g><g fill="#ddd" stroke="#000" stroke-opacity="0.02" style="fill-opacity:0.07200000000000001;" transform="translate(0.0,187.0)"><rect x="22.0" y="0" width="22.0" height="66.0"></rect><rect x="0" y="22.0" width="66.0" height="22.0"></rect></g><g fill="#ddd" stroke="#000" stroke-opacity="0.02" style="fill-opacity:0.07200000000000001;" transform="translate(264.0,187.0)"><rect x="22.0" y="0" width="22.0" height="66.0"></rect><rect x="0" y="22.0" width="66.0" height="22.0"></rect></g><g fill="#ddd" stroke="#000" stroke-opacity="0.02" style="fill-opacity:0.02;" transform="translate(44.0,187.0)"><rect x="22.0" y="0" width="22.0" height="66.0"></rect><rect x="0" y="22.0" width="66.0" height="22.0"></rect></g><g fill="#222" stroke="#000" stroke-opacity="0.02" style="fill-opacity:0.08066666666666666;" transform="translate(88.0,187.0)"><rect x="22.0" y="0" width="22.0" height="66.0"></rect><rect x="0" y="22.0" width="66.0" height="22.0"></rect></g><g fill="#ddd" stroke="#000" stroke-opacity="0.02" style="fill-opacity:0.08933333333333333;" transform="translate(132.0,187.0)"><rect x="22.0" y="0" width="22.0" height="66.0"></rect><rect x="0" y="22.0" width="66.0" height="22.0"></rect></g><g fill="#222" stroke="#000" stroke-opacity="0.02" style="fill-opacity:0.13266666666666665;" transform="translate(176.0,187.0)"><rect x="22.0" y="0" width="22.0" height="66.0"></rect><rect x="0" y="22.0" width="66.0" height="22.0"></rect></g><g fill="#ddd" stroke="#000" stroke-opacity="0.02" style="fill-opacity:0.03733333333333333;" transform="translate(220.0,187.0)"><rect x="22.0" y="0" width="22.0" height="66.0"></rect><rect x="0" y="22.0" width="66.0" height="22.0"></rect></g></svg>