<svg xmlns="http://www.w3.org/2000/svg" width="340" height="432"><path d="M0 30 C 59.49999999999999 0, 110.5 0, 170 30 S 280.5 60, 340 30 S 450.5 0, 510.0, 30" fill="none" stroke="#ddd" style="opacity:0.12400000000000001;stroke-width:12px;" transform="translate(-85, -45.0)"></path><path d="M0 30 C 59.49999999999999 0, 110.5 0, 170 30 S 280.5 60, 340 30 S 450.5 0, 510.0, 30" fill="none" stroke="#ddd" style="opacity:0.12400000000000001;stroke-width:12px;" transform="translate(-85, 387.0)"></path><path d="M0 30 C 59.49999999999999 0, 110.5 0, 170 30 S 280.5 60, 340 30 S 450.5 0, 510.0, 30" fill="none" stroke="#ddd" style="opacity:0.02;stroke-width:12px;" transform="translate(-85, -33.0)"></path><path d="M0 30 C 59.49999999999999 0, 110.5 0, 170 30 S 280.5 60, 340 30 S 450.5 0, 510.0, 30" fill="none" stroke="#ddd" style="opacity:0.02;stroke-width:12px;" transform="translate(-85, 399.0)"></path><path d="M0 30 C 59.49999999999999 0, 110.5 0, 170 30 S 280.5 60, 340 30 S 450.5 0, 510.0, 30" fill="none" stroke="#222" style="opacity:0.06333333333333334;stroke-width:12px;" transform="translate(-85, -21.0)"></path><path d="M0 30 C 59.49999999999999 0, 110.5 0, 170 30 S 280.5 60, 340 30 S 450.5 0, 510.0, 30" fill="none" stroke="#222" style="opacity:0.06333333333333334;stroke-width:12px;" transform="translate(-85, 411.0)"></path><path d="M0 30 C 59.49999999999999 0, 110.5 0, 170 30 S 280.5 60, 340 30 S 450.5 0, 510.0, 30" fill="none" stroke="#222" style="opacity:0.046;stroke-width:12px;" transform="translate(-85, -9.0)"></path><path d="M0 30 C 59.49999999999999 0, 110.5 0, 170 30 S 280.5 60, 340 30 S 450.5 0, 510.0, 30" fill="none" stroke="#222" style="opacity:0.046;stroke-width:12px;" transform="translate(-85, 423.0)"></path><path d="M0 30 C 59.49999999999999 0, 110.5 0, 170 30 S 280.5 60, 340 30 S 450.5 0, 510.0, 30" fill="none" stroke="#ddd" style="opacity:0.14133333333333334;stroke-width:12px;" transform="translate(-85, 3.0)"></path><path d="M0 30 C 59.49999999999999 0, 110.5 0, 170 30 S 280.5 60, 340 30 S 450.5 0, 510.0, 30" fill="none" stroke="#ddd" style="opacity:0.14133333333333334;stroke-width:12px;" transform="translate(-85, 435.0)"></path><path d="M0 30 C 59.49999999999999 0, 110.5 0, 170 30 S 280.5 60, 340 30 S 450.5 0, 510.0, 30" fill="none" stroke="#ddd" style="opacity:0.12400000000000001;stroke-width:12px;" transform="translate(-85, 15.0)"></path><path d="M0 30 C 59.49999999999999 0, 110.5 0, 170 30 S 280.5 60, 340 30 S 450.5 0, 510.0, 30" fill="none" stroke="#ddd" style="opacity:0.12400000000000001;stroke-width:12px;" transform="translate(-85, 447.0)"></path><path d="M0 30 C 59.49999999999999 0, 110.5 0, 170 30 S 280.5 60, 340 30 S 450.5 0, 510.0, 30" fill="none" stroke="#222" style="opacity:0.15;stroke-width:12px;" transform="translate(-85, 27.0)"></path><path d="M0 30 C 59.49999999999999 0, 110.5 0, 170 30 S 280.5 60, 340 30 S 450.5 0, 510.0, 30" fill="none" stroke="#222" style="opacity:0.15;stroke-width:12px;" transform="translate(-85, 459.0)"></path><path d="M0 30 C 59.49999999999999 0, 110.5 0, 170 30 S 280.5 60, 340 30 S 450.5 0, 510.0, 30" fill="none" stroke="#222" style="opacity:0.098;stroke-width:12px;" transform="translate(-85, 39.0)"></path><path d="M0 30 C 59.49999999999999 0, 110.5 0, 170 30 S 280.5 60, 340 30 S 450.5 0, 510.0, 30" fill="none" stroke="#222" style="opacity:0.098;stroke-width:12px;" transform="translate(-85, 471.0)"></path><path d="M0 30 C 59.49999999999999 0, 110.5 0, 170 30 S 280.5 60, 340 30 S 450.5 0, 510.0, 30" fill="none" stroke="#ddd" style="opacity:0.14133333333333334;stroke-width:12px;" transform="translate(-85, 51.0)"></path><path d="M0 30 C 59.49999999999999 0, 110.5 0, 170 30 S 280.5 60, 340 30 S 450.5 0, 510.0, 30" fill="none" stroke="#ddd" style="opacity:0.14133333333333334;stroke-width:12px;" transform="translate(-85, 483.0)"></path><path d="M0 30 C 59.49999999999999 0, 110.5 0, 170 30 S 280.5 60, 340 30 S 450.5 0, 510.0, 30" fill="none" stroke="#222" style="opacity:0.13266666666666665;stroke-width:12px;" transform="translate(-85, 63.0)"></path><path d="M0 30 C 59.49999999999999 0, 110.5 0, 170 30 S 280.5 60, 340 30 S 450.5 0, 510.0, 30" fill="none" stroke="#222" style="opacity:0.13266666666666665;stroke-width:12px;" transform="translate(-85, 495.0)"></path><path d="M0 30 C 59.49999999999999 0, 110.5 0, 170 30 S 280.5 60, 340 30 S 450.5 0, 510.0, 30" fill="none" stroke="#ddd" style="opacity:0.05466666666666667;stroke-width:12px;" transform="translate(-85, 75.0)"></path><path d="M0 30 C 59.49999999999999 0, 110.5 0, 170 30 S 280.5 60, 340 30 S 450.5 0, 510.0, 30" fill="none" stroke="#ddd" style="opacity:0.05466666666666667;stroke-width:12px;" transform="translate(-85, 507.0)"></path><path d="M0 30 C 59.49999999999999 0, 110.5 0, 170 30 S 280.5 60, 340 30 S 450.5 0, 510.0, 30" fill="none" stroke="#222" style="opacity:0.028666666666666667;stroke-width:12px;" transform="translate(-85, 87.0)"></path><path d="M0 30 C 59.49999999999999 0, 110.5 0, 170 30 S 280.5 60, 340 30 S 450.5 0, 510.0, 30" fill="none" stroke="#222" style="opacity:0.028666666666666667;stroke-width:12px;" transform="translate(-85, 519.0)"></path><path d="M0 30 C 59.49999999999999 0, 110.5 0, 170 30 S 280.5 60, 340 30 S 450.5 0, 510.0, 30" fill="none" stroke="#222" style="opacity:0.13266666666666665;stroke-width:12px;" transform="translate(-85, 99.0)"></path><path d="M0 30 C 59.49999999999999 0, 110.5 0, 170 30 S 280.5 60, 340 30 S 450.5 0, 510.0, 30" fill="none" stroke="#222" style="opacity:0.13266666666666665;stroke-width:12px;" transform="translate(-85, 531.0)"></path><path d="M0 30 C 59.49999999999999 0, 110.5 0, 170 30 S 280.5 60, 340 30 S 450.5 0, 510.0, 30" fill="none" stroke="#222" style="opacity:0.15;stroke-width:12px;" transform="translate(-85, 111.0)"></path><path d="M0 30 C 59.49999999999999 0, 110.5 0, 170 30 S 280.5 60, 340 30 S 450.5 0, 510.0, 30" fill="none" stroke="#222" style="opacity:0.15;stroke-width:12px;" transform="translate(-85, 543.0)"></path><path d="M0 30 C 59.49999999999999 0, 110.5 0, 170 30 S 280.5 60, 340 30 S 450.5 0, 510.0, 30" fill="none" stroke="#ddd" style="opacity:0.02;stroke-width:12px;" transform="translate(-85, 123.0)"></path><path d="M0 30 C 59.49999999999999 0, 110.5 0, 170 30 S 280.5 60, 340 30 S 450.5 0, 510.0, 30" fill="none" stroke="#ddd" style="opacity:0.02;stroke-width:12px;" transform="translate(-85, 555.0)"></path><path d="M0 30 C 59.49999999999999 0, 110.5 0, 170 30 S 280.5 60, 340 30 S 450.5 0, 510.0, 30" fill="none" stroke="#222" style="opacity:0.046;stroke-width:12px;" transform="translate(-85, 135.0)"></path><path d="M0 30 C 59.49999999999999 0, 110.5 0, 170 30 S 280.5 60, 340 30 S 450.5 0, 510.0, 30" fill="none" stroke="#222" style="opacity:0.046;stroke-width:12px;" transform="translate(-85, 567.0)"></path><path d="M0 30 C 59.49999999999999 0, 110.5 0, 170 30 S 280.5 60, 340 30 S 450.5 0, 510.0, 30" fill="none" stroke="#222" style="opacity:0.028666666666666667;stroke-width:12px;" transform="translate(-85, 147.0)"></path><path d="M0 30 C 59.49999999999999 0, 110.5 0, 170 30 S 280.5 60, 340 30 S 450.5 0, 510.0, 30" fill="none" stroke="#222" style="opacity:0.028666666666666667;stroke-width:12px;" transform="translate(-85, 579.0)"></path><path d="M0 30 C 59.49999999999999 0, 110.5 0, 170 30 S 280.5 60, 340 30 S 450.5 0, 510.0, 30" fill="none" stroke="#222" style="opacity:0.028666666666666667;stroke-width:12px;" transform="translate(-85, 159.0)"></path><path d="M0 30 C 59.49999999999999 0, 110.5 0, 170 30 S 280.5 60, 340 30 S 450.5 0, 510.0, 30" fill="none" stroke="#222" style="opacity:0.028666666666666667;stroke-width:12px;" transform="translate(-85, 591.0)"></path><path d="M0 30 C 59.49999999999999 0, 110.5 0, 170 30 S 280.5 60, 340 30 S 450.5 0, 510.0, 30" fill="none" stroke="#222" style="opacity:0.11533333333333334;stroke-width:12px;" transform="translate(-85, 171.0)"></path><path d="M0 30 C 59.49999999999999 0, 110.5 0, 170 30 S 280.5 60, 340 30 S 450.5 0, 510.0, 30" fill="none" stroke="#222" style="opacity:0.11533333333333334;stroke-width:12px;" transform="translate(-85, 603.0)"></path><path d="M0 30 C 59.49999999999999 0, 110.5 0, 170 30 S 280.5 60, 340 30 S 450.5 0, 510.0, 30" fill="none" stroke="#222" style="opacity:0.098;stroke-width:12px;" transform="translate(-85, 183.0)"></path><path d="M0 30 C 59.49999999999999 0, 110.5 0, 170 30 S 280.5 60, 340 30 S 450.5 0, 510.0, 30" fill="none" stroke="#222" style="opacity:0.098;stroke-width:12px;" transform="translate(-85, 615.0)"></path><path d="M0 30 C 59.49999999999999 0, 110.5 0, 170 30 S 280.5 60, 340 30 S 450.5 0, 510.0, 30" fill="none" stroke="#222" style="opacity:0.13266666666666665;stroke-width:12px;" transform="translate(-85, 195.0)"></path><path d="M0 30 C 59.49999999999999 0, 110.5 0, 170 30 S 280.5 60, 340 30 S 450.5 0, 510.0, 30" fill="none" stroke="#222" style="opacity:0.13266666666666665;stroke-width:12px;" transform="translate(-85, 627.0)"></path><path d="M0 30 C 59.49999999999999 0, 110.5 0, 170 30 S 280.5 60, 340 30 S 450.5 0, 510.0, 30" fill="none" stroke="#222" style="opacity:0.15;stroke-width:12px;" transform="translate(-85, 207.0)"></path><path d="M0 30 C 59.49999999999999 0, 110.5 0, 170 30 S 280.5 60, 340 30 S 450.5 0, 510.0, 30" fill="none" stroke="#222" style="opacity:0.15;stroke-width:12px;" transform="translate(-85, 639.0)"></path><path d="M0 30 C 59.49999999999999 0, 110.5 0, 170 30 S 280.5 60, 340 30 S 450.5 0, 510.0, 30" fill="none" stroke="#222" style="opacity:0.028666666666666667;stroke-width:12px;" transform="translate(-85, 219.0)"></path><path d="M0 30 C 59.49999999999999 0, 110.5 0, 170 30 S 280.5 60, 340 30 S 450.5 0, 510.0, 30" fill="none" stroke="#222" style="opacity:0.028666666666666667;stroke-width:12px;" transform="translate(-85, 651.0)"></path><path d="M0 30 C 59.49999999999999 0, 110.5 0, 170 30 S 280.5 60, 340 30 S 450.5 0, 510.0, 30" fill="none" stroke="#222" style="opacity:0.046;stroke-width:12px;" transform="translate(-85, 231.0)"></path><path d="M0 30 C 59.49999999999999 0, 110.5 0, 170 30 S 280.5 60, 340 30 S 450.5 0, 510.0, 30" fill="none" stroke="#222" style="opacity:0.046;stroke-width:12px;" transform="translate(-85, 663.0)"></path><path d="M0 30 C 59.49999999999999 0, 110.5 0, 170 30 S 280.5 60, 340 30 S 450.5 0, 510.0, 30" fill="none" stroke="#ddd" style="opacity:0.12400000000000001;stroke-width:12px;" transform="translate(-85, 243.0)"></path><path d="M0 30 C 59.49999999999999 0, 110.5 0, 170 30 S 280.5 60, 340 30 S 450.5 0, 510.0, 30" fill="none" stroke="#ddd" style="opacity:0.12400000000000001;stroke-width:12px;" transform="translate(-85, 675.0)"></path><path d="M0 30 C 59.49999999999999 0, 110.5 0, 170 30 S 280.5 60, 340 30 S 450.5 0, 510.0, 30" fill="none" stroke="#ddd" style="opacity:0.12400000000000001;stroke-width:12px;" transform="translate(-85, 255.0)"></path><path d="M0 30 C 59.49999999999999 0, 110.5 0, 170 30 S 280.5 60, 340 30 S 450.5 0, 510.0, 30" fill="none" stroke="#ddd" style="opacity:0.12400000000000001;stroke-width:12px;" transform="translate(-85, 687.0)"></path><path d="M0 30 C 59.49999999999999 0, 110.5 0, 170 30 S 280.5 60, 340 30 S 450.5 0, 510.0, 30" fill="none" stroke="#ddd" style="opacity:0.07200000000000001;stroke-width:12px;" transform="translate(-85, 267.0)"></path><path d="M0 30 C 59.49999999999999 0, 110.5 0, 170 30 S 280.5 60, 340 30 S 450.5 0, 510.0, 30" fill="none" stroke="#ddd" style="opacity:0.07200000000000001;stroke-width:12px;" transform="translate(-85, 699.0)"></path><path d="M0 30 C 59.49999999999999 0, 110.5 0, 170 30 S 280.5 60, 340 30 S 450.5 0, 510.0, 30" fill="none" stroke="#ddd" style="opacity:0.12400000000000001;stroke-width:12px;" transform="translate(-85, 279.0)"></path><path d="M0 30 C 59.49999999999999 0, 110.5 0, 170 30 S 280.5 60, 340 30 S 450.5 0, 510.0, 30" fill="none" stroke="#ddd" style="opacity:0.12400000000000001;stroke-width:12px;" transform="translate(-85, 711.0)"></path><path d="M0 30 C 59.49999999999999 0, 110.5 0, 170 30 S 280.5 60, 340 30 S 450.5 0, 510.0, 30" fill="none" stroke="#222" style="opacity:0.046;stroke-width:12px;" transform="translate(-85, 291.0)"></path><path d="M0 30 C 59.49999999999999 0, 110.5 0, 170 30 S 280.5 60, 340 30 S 450.5 0, 510.0, 30" fill="none" stroke="#222" style="opacity:0.046;stroke-width:12px;" transform="translate(-85, 723.0)"></path><path d="M0 30 C 59.49999999999999 0, 110.5 0, 170 30 S 280.5 60, 340 30 S 450.5 0, 510.0, 30" fill="none" stroke="#222" style="opacity:0.11533333333333334;stroke-width:12px;" transform="translate(-85, 303.0)"></path><path d="M0 30 C 59.49999999999999 0, 110.5 0, 170 30 S 280.5 60, 340 30 S 450.5 0, 510.0, 30" fill="none" stroke="#222" style="opacity:0.11533333333333334;stroke-width:12px;" transform="translate(-85, 735.0)"></path><path d="M0 30 C 59.49999999999999 0, 110.5 0, 170 30 S 280.5 60, 340 30 S 450.5 0, 510.0, 30" fill="none" stroke="#ddd" style="opacity:0.07200000000000001;stroke-width:12px;" transform="translate(-85, 315.0)"></path><path d="M0 30 C 59.49999999999999 0, 110.5 0, 170 30 S 280.5 60, 340 30 S 450.5 0, 510.0, 30" fill="none" stroke="#ddd" style="opacity:0.07200000000000001;stroke-width:12px;" transform="translate(-85, 747.0)"></path><path d="M0 30 C 59.49999999999999 0, 110.5 0, 170 30 S 280.5 60, 340 30 S 450.5 0, 510.0, 30" fill="none" stroke="#ddd" style="opacity:0.02;stroke-width:12px;" transform="translate(-85, 327.0)"></path><path d="M0 30 C 59.49999999999999 0, 110.5 0, 170 30 S 280.5 60, 340 30 S 450.5 0, 510.0, 30" fill="none" stroke="#ddd" style="opacity:0.02;stroke-width:12px;" transform="translate(-85, 759.0)"></path><path d="M0 30 C 59.49999999999999 0, 110.5 0, 170 30 S 280.5 60, 340 30 S 450.5 0, 510.0, 30" fill="none" stroke="#222" style="opacity:0.08066666666666666;stroke-width:12px;" transform="translate(-85, 339.0)"></path><path d="M0 30 C 59.49999999999999 0, 110.5 0, 170 30 S 280.5 60, 340 30 S 450.5 0, 510.0, 30" fill="none" stroke="#222" style="opacity:0.08066666666666666;stroke-width:12px;" transform="translate(-85, 771.0)"></path><path d="M0 30 C 59.49999999999999 0, 110.5 0, 170 30 S 280.5 60, 340 30 S 450.5 0, 510.0, 30" fill="none" stroke="#ddd" style="opacity:0.08933333333333333;stroke-width:12px;" transform="translate(-85, 351.0)"></path><path d="M0 30 C 59.49999999999999 0, 110.5 0, 170 30 S 280.5 60, 340 30 S 450.5 0, 510.0, 30" fill="none" stroke="#ddd" style="opacity:0.08933333333333333;stroke-width:12px;" transform="translate(-85, 783.0)"></path><path d="M0 30 C 59.49999999999999 0, 110.5 0, 170 30 S 280.5 60, 340 30 S 450.5 0, 510.0, 30" fill="none" stroke="#222" style="opacity:0.13266666666666665;stroke-width:12px;" transform="translate(-85, 363.0)"></path><path d="M0 30 C 59.49999999999999 0, 110.5 0, 170 30 S 280.5 60, 340 30 S 450.5 0, 510.0, 30" fill="none" stroke="#222" style="opacity:0.13266666666666665;stroke-width:12px;" transform="translate(-85, 795.0)"></path><path d="M0 30 C 59.49999999999999 0, 110.5 0, 170 30 S 280.5 60, 340 30 S 450.5 0, 510.0, 30" fill="none" stroke="#ddd" style="opacity:0.03733333333333333;stroke-width:12px;" transform="translate(-85, 375.0)"></path><path d="M0 30 C 59.49999999999999 0, 110.5 0, 170 30 S 280.5 60, 340 30 S 450.5 0, 510.0, 30" fill="none" stroke="#ddd" style="opacity:0.03733333333333333;stroke-width:12px;" transform="translate(-85, 807.0)"></path></svg>