<svg xmlns="http://www.w3.org/2000/svg" width="300" height="300"><rect x="0.0" y="0.0" width="50.0" height="50.0" fill="#ddd" fill-opacity="0.12400000000000001" stroke="#000" stroke-opacity="0.02"></rect><rect x="50.0" y="0.0" width="50.0" height="50.0" fill="#ddd" fill-opacity="0.02" stroke="#000" stroke-opacity="0.02"></rect><rect x="100.0" y="0.0" width="50.0" height="50.0" fill="#222" fill-opacity="0.06333333333333334" stroke="#000" stroke-opacity="0.02"></rect><rect x="150.0" y="0.0" width="50.0" height="50.0" fill="#222" fill-opacity="0.046" stroke="#000" stroke-opacity="0.02"></rect><rect x="200.0" y="0.0" width="50.0" height="50.0" fill="#ddd" fill-opacity="0.14133333333333334" stroke="#000" stroke-opacity="0.02"></rect><rect x="250.0" y="0.0" width="50.0" height="50.0" fill="#ddd" fill-opacity="0.12400000000000001" stroke="#000" stroke-opacity="0.02"></rect><rect x="0.0" y="50.0" width="50.0" height="50.0" fill="#222" fill-opacity="0.15" stroke="#000" stroke-opacity="0.02"></rect><rect x="50.0" y="50.0" width="50.0" height="50.0" fill="#222" fill-opacity="0.098" stroke="#000" stroke-opacity="0.02"></rect><rect x="100.0" y="50.0" width="50.0" height="50.0" fill="#ddd" fill-opacity="0.14133333333333334" stroke="#000" stroke-opacity="0.02"></rect><rect x="150.0" y="50.0" width="50.0" height="50.0" fill="#222" fill-opacity="0.13266666666666665" stroke="#000" stroke-opacity="0.02"></rect><rect x="200.0" y="50.0" width="50.0" height="50.0" fill="#ddd" fill-opacity="0.05466666666666667" stroke="#000" stroke-opacity="0.02"></rect><rect x="250.0" y="50.0" width="50.0" height="50.0" fill="#222" fill-opacity="0.028666666666666667" stroke="#000" stroke-opacity="0.02"></rect><rect x="0.0" y="100.0" width="50.0" height="50.0" fill="#222" fill-opacity="0.13266666666666665" stroke="#000" stroke-opacity="0.02"></rect><rect x="50.0" y="100.0" width="50.0" height="50.0" fill="#222" fill-opacity="0.15" stroke="#000" stroke-opacity="0.02"></rect><rect x="100.0" y="100.0" width="50.0" height="50.0" fill="#ddd" fill-opacity="0.02" stroke="#000" stroke-opacity="0.02"></rect><rect x="150.0" y="100.0" width="50.0" height="50.0" fill="#222" fill-opacity="0.046" stroke="#000" stroke-opacity="0.02"></rect><rect x="200.0" y="100.0" width="50.0" height="50.0" fill="#222" fill-opacity="0.028666666666666667" stroke="#000" stroke-opacity="0.02"></rect><rect x="250.0" y="100.0" width="50.0" height="50.0" fill="#222" fill-opacity="0.028666666666666667" stroke="#000" stroke-opacity="0.02"></rect><rect x="0.0" y="150.0" width="50.0" height="50.0" fill="#222" fill-opacity="0.11533333333333334" stroke="#000" stroke-opacity="0.02"></rect><rect x="50.0" y="150.0" width="50.0" height="50.0" fill="#222" fill-opacity="0.098" stroke="#000" stroke-opacity="0.02"></rect><rect x="100.0" y="150.0" width="50.0" height="50.0" fill="#222" fill-opacity="0.13266666666666665" stroke="#000" stroke-opacity="0.02"></rect><rect x="150.0" y="150.0" width="50.0" height="50.0" fill="#222" fill-opacity="0.15" stroke="#000" stroke-opacity="0.02"></rect><rect x="200.0" y="150.0" width="50.0" height="50.0" fill="#222" fill-opacity="0.028666666666666667" stroke="#000" stroke-opacity="0.02"></rect><rect x="250.0" y="150.0" width="50.0" height="50.0" fill="#222" fill-opacity="0.046" stroke="#000" stroke-opacity="0.02"></rect><rect x="0.0" y="200.0" width="50.0" height="50.0" fill="#ddd" fill-opacity="0.12400000000000001" stroke="#000" stroke-opacity="0.02"></rect><rect x="50.0" y="200.0" width="50.0" height="50.0" fill="#ddd" fill-opacity="0.12400000000000001" stroke="#000" stroke-opacity="0.02"></rect><rect x="100.0" y="200.0" width="50.0" height="50.0" fill="#ddd" fill-opacity="0.07200000000000001" stroke="#000" stroke-opacity="0.02"></rect><rect x="150.0" y="200.0" width="50.0" height="50.0" fill="#ddd" fill-opacity="0.12400000000000001" stroke="#000" stroke-opacity="0.02"></rect><rect x="200.0" y="200.0" width="50.0" height="50.0" fill="#222" fill-opacity="0.046" stroke="#000" stroke-opacity="0.02"></rect><rect x="250.0" y="200.0" width="50.0" height="50.0" fill="#222" fill-opacity="0.11533333333333334" stroke="#000" stroke-opacity="0.02"></rect><rect x="0.0" y="250.0" width="50.0" height="50.0" fill="#ddd" fill-opacity="0.07200000000000001" stroke="#000" stroke-opacity="0.02"></rect><rect x="50.0" y="250.0" width="50.0" height="50.0" fill="#ddd" fill-opacity="0.02" stroke="#000" stroke-opacity="0.02"></rect><rect x="100.0" y="250.0" width="50.0" height="50.0" fill="#222" fill-opacity="0.08066666666666666" stroke="#000" stroke-opacity="0.02"></rect><rect x="150.0" y="250.0" width="50.0" height="50.0" fill="#ddd" fill-opacity="0.08933333333333333" stroke="#000" stroke-opacity="0.02"></rect><rect x="200.0" y="250.0" width="50.0" height="50.0" fill="#222" fill-opacity="0.13266666666666665" stroke="#000" stroke-opacity="0.02"></rect><rect x="250.0" y="250.0" width="50.0" height="50.0" fill="#ddd" fill-opacity="0.03733333333333333" stroke="#000" stroke-opacity="0.02"></rect></svg>