<svg xmlns="http://www.w3.org/2000/svg" width="156" height="180"><rect x="-16.5" y="-16.5" width="33.0" height="33.0" stroke="#000" stroke-opacity="0.02" fill="#ddd" fill-opacity="0.12400000000000001" stroke-width="1"></rect><rect x="139.65767664977295" y="-16.5" width="33.0" height="33.0" stroke="#000" stroke-opacity="0.02" fill="#ddd" fill-opacity="0.12400000000000001" stroke-width="1"></rect><rect x="-16.5" y="163.8153532995459" width="33.0" height="33.0" stroke="#000" stroke-opacity="0.02" fill="#ddd" fill-opacity="0.12400000000000001" stroke-width="1"></rect><rect x="139.65767664977295" y="163.8153532995459" width="33.0" height="33.0" stroke="#000" stroke-opacity="0.02" fill="#ddd" fill-opacity="0.12400000000000001" stroke-width="1"></rect><rect x="61.578838324886476" y="28.578838324886473" width="33.0" height="33.0" stroke="#000" stroke-opacity="0.02" fill="#ddd" fill-opacity="0.02" stroke-width="1"></rect><rect x="-16.5" y="73.65767664977295" width="33.0" height="33.0" stroke="#000" stroke-opacity="0.02" fill="#222" fill-opacity="0.06333333333333334" stroke-width="1"></rect><rect x="139.65767664977295" y="73.65767664977295" width="33.0" height="33.0" stroke="#000" stroke-opacity="0.02" fill="#222" fill-opacity="0.06333333333333334" stroke-width="1"></rect><rect x="61.578838324886476" y="118.73651497465941" width="33.0" height="33.0" stroke="#000" stroke-opacity="0.02" fill="#222" fill-opacity="0.046" stroke-width="1"></rect><polyline points="0, 0, 28.578838324886473, 16.5, 0, 33.0, 0, 0" stroke="#000" stroke-opacity="0.02" fill="#ddd" fill-opacity="0.14133333333333334" stroke-width="1" transform="translate(16.5, -16.5) rotate(0, 16.5, 14.289419162443236)"></polyline><polyline points="0, 0, 28.578838324886473, 16.5, 0, 33.0, 0, 0" stroke="#000" stroke-opacity="0.02" fill="#ddd" fill-opacity="0.14133333333333334" stroke-width="1" transform="translate(16.5, 196.8153532995459) rotate(0, 16.5, 14.289419162443236) scale(1, -1)"></polyline><polyline points="0, 0, 28.578838324886473, 16.5, 0, 33.0, 0, 0" stroke="#000" stroke-opacity="0.02" fill="#ddd" fill-opacity="0.12400000000000001" stroke-width="1" transform="translate(139.65767664977295, -16.5) rotate(0, 16.5, 14.289419162443236) scale(-1, 1)"></polyline><polyline points="0, 0, 28.578838324886473, 16.5, 0, 33.0, 0, 0" stroke="#000" stroke-opacity="0.02" fill="#ddd" fill-opacity="0.12400000000000001" stroke-width="1" transform="translate(139.65767664977295, 196.8153532995459) rotate(0, 16.5, 14.289419162443236) scale(-1, -1)"></polyline><polyline points="0, 0, 28.578838324886473, 16.5, 0, 33.0, 0, 0" stroke="#000" stroke-opacity="0.02" fill="#222" fill-opacity="0.15" stroke-width="1" transform="translate(94.57883832488648, 28.578838324886473)"></polyline><polyline points="0, 0, 28.578838324886473, 16.5, 0, 33.0, 0, 0" stroke="#000" stroke-opacity="0.02" fill="#222" fill-opacity="0.098" stroke-width="1" transform="translate(61.578838324886476, 28.578838324886473) scale(-1, 1)"></polyline><polyline points="0, 0, 28.578838324886473, 16.5, 0, 33.0, 0, 0" stroke="#000" stroke-opacity="0.02" fill="#ddd" fill-opacity="0.14133333333333334" stroke-width="1" transform="translate(94.57883832488648, 151.73651497465943) scale(1, -1)"></polyline><polyline points="0, 0, 28.578838324886473, 16.5, 0, 33.0, 0, 0" stroke="#000" stroke-opacity="0.02" fill="#222" fill-opacity="0.13266666666666665" stroke-width="1" transform="translate(61.578838324886476, 151.73651497465943) scale(-1, -1)"></polyline><polyline points="0, 0, 28.578838324886473, 16.5, 0, 33.0, 0, 0" stroke="#000" stroke-opacity="0.02" fill="#ddd" fill-opacity="0.05466666666666667" stroke-width="1" transform="translate(16.5, 73.65767664977295)"></polyline><polyline points="0, 0, 28.578838324886473, 16.5, 0, 33.0, 0, 0" stroke="#000" stroke-opacity="0.02" fill="#222" fill-opacity="0.028666666666666667" stroke-width="1" transform="translate(139.65767664977295, 73.65767664977295) scale(-1, 1)"></polyline><rect x="0" y="0" width="33.0" height="33.0" stroke="#000" stroke-opacity="0.02" fill="#222" fill-opacity="0.13266666666666665" stroke-width="1" transform="translate(16.5, 16.5) rotate(-30, 0, 0)"></rect><rect x="0" y="0" width="33.0" height="33.0" stroke="#000" stroke-opacity="0.02" fill="#222" fill-opacity="0.15" stroke-width="1" transform="scale(-1, 1) translate(-139.65767664977295, 16.5) rotate(-30, 0, 0)"></rect><rect x="0" y="0" width="33.0" height="33.0" stroke="#000" stroke-opacity="0.02" fill="#ddd" fill-opacity="0.02" stroke-width="1" transform="translate(16.5, 40.65767664977295) rotate(30, 0, 33.0)"></rect><rect x="0" y="0" width="33.0" height="33.0" stroke="#000" stroke-opacity="0.02" fill="#222" fill-opacity="0.046" stroke-width="1" transform="scale(-1, 1) translate(-139.65767664977295, 40.65767664977295) rotate(30, 0, 33.0)"></rect><rect x="0" y="0" width="33.0" height="33.0" stroke="#000" stroke-opacity="0.02" fill="#222" fill-opacity="0.028666666666666667" stroke-width="1" transform="scale(1, -1) translate(16.5, -139.65767664977295) rotate(30, 0, 33.0)"></rect><rect x="0" y="0" width="33.0" height="33.0" stroke="#000" stroke-opacity="0.02" fill="#222" fill-opacity="0.028666666666666667" stroke-width="1" transform="scale(-1, -1) translate(-139.65767664977295, -139.65767664977295) rotate(30, 0, 33.0)"></rect><rect x="0" y="0" width="33.0" height="33.0" stroke="#000" stroke-opacity="0.02" fill="#222" fill-opacity="0.11533333333333334" stroke-width="1" transform="scale(1, -1) translate(16.5, -163.8153532995459) rotate(-30, 0, 0)"></rect><rect x="0" y="0" width="33.0" height="33.0" stroke="#000" stroke-opacity="0.02" fill="#222" fill-opacity="0.098" stroke-width="1" transform="scale(-1, -1) translate(-139.65767664977295, -163.8153532995459) rotate(-30, 0, 0)"></rect></svg>