<svg xmlns="http://www.w3.org/2000/svg" width="201" height="348"><polyline points="33.5, 0, 67.0, 58.023702053557386, 0, 58.023702053557386, 33.5, 0" fill="#ddd" fill-opacity="0.12400000000000001" stroke="#000" stroke-opacity="0.02" transform="translate(-33.5, 0.0) rotate(180, 33.5, 29.011851026778693)"></polyline><polyline points="33.5, 0, 67.0, 58.023702053557386, 0, 58.023702053557386, 33.5, 0" fill="#ddd" fill-opacity="0.12400000000000001" stroke="#000" stroke-opacity="0.02" transform="translate(167.5, 0.0) rotate(180, 33.5, 29.011851026778693)"></polyline><polyline points="33.5, 0, 67.0, 58.023702053557386, 0, 58.023702053557386, 33.5, 0" fill="#ddd" fill-opacity="0.02" stroke="#000" stroke-opacity="0.02" transform="translate(0.0, 0.0) rotate(0, 33.5, 29.011851026778693)"></polyline><polyline points="33.5, 0, 67.0, 58.023702053557386, 0, 58.023702053557386, 33.5, 0" fill="#222" fill-opacity="0.06333333333333334" stroke="#000" stroke-opacity="0.02" transform="translate(33.5, 0.0) rotate(180, 33.5, 29.011851026778693)"></polyline><polyline points="33.5, 0, 67.0, 58.023702053557386, 0, 58.023702053557386, 33.5, 0" fill="#222" fill-opacity="0.046" stroke="#000" stroke-opacity="0.02" transform="translate(67.0, 0.0) rotate(0, 33.5, 29.011851026778693)"></polyline><polyline points="33.5, 0, 67.0, 58.023702053557386, 0, 58.023702053557386, 33.5, 0" fill="#ddd" fill-opacity="0.14133333333333334" stroke="#000" stroke-opacity="0.02" transform="translate(100.5, 0.0) rotate(180, 33.5, 29.011851026778693)"></polyline><polyline points="33.5, 0, 67.0, 58.023702053557386, 0, 58.023702053557386, 33.5, 0" fill="#ddd" fill-opacity="0.12400000000000001" stroke="#000" stroke-opacity="0.02" transform="translate(134.0, 0.0) rotate(0, 33.5, 29.011851026778693)"></polyline><polyline points="33.5, 0, 67.0, 58.023702053557386, 0, 58.023702053557386, 33.5, 0" fill="#222" fill-opacity="0.15" stroke="#000" stroke-opacity="0.02" transform="translate(-33.5, 58.023702053557386) rotate(0, 33.5, 29.011851026778693)"></polyline><polyline points="33.5, 0, 67.0, 58.023702053557386, 0, 58.023702053557386, 33.5, 0" fill="#222" fill-opacity="0.15" stroke="#000" stroke-opacity="0.02" transform="translate(167.5, 58.023702053557386) rotate(0, 33.5, 29.011851026778693)"></polyline><polyline points="33.5, 0, 67.0, 58.023702053557386, 0, 58.023702053557386, 33.5, 0" fill="#222" fill-opacity="0.098" stroke="#000" stroke-opacity="0.02" transform="translate(0.0, 58.023702053557386) rotate(180, 33.5, 29.011851026778693)"></polyline><polyline points="33.5, 0, 67.0, 58.023702053557386, 0, 58.023702053557386, 33.5, 0" fill="#ddd" fill-opacity="0.14133333333333334" stroke="#000" stroke-opacity="0.02" transform="translate(33.5, 58.023702053557386) rotate(0, 33.5, 29.011851026778693)"></polyline><polyline points="33.5, 0, 67.0, 58.023702053557386, 0, 58.023702053557386, 33.5, 0" fill="#222" fill-opacity="0.13266666666666665" stroke="#000" stroke-opacity="0.02" transform="translate(67.0, 58.023702053557386) rotate(180, 33.5, 29.011851026778693)"></polyline><polyline points="33.5, 0, 67.0, 58.023702053557386, 0, 58.023702053557386, 33.5, 0" fill="#ddd" fill-opacity="0.05466666666666667" stroke="#000" stroke-opacity="0.02" transform="translate(100.5, 58.023702053557386) rotate(0, 33.5, 29.011851026778693)"></polyline><polyline points="33.5, 0, 67.0, 58.023702053557386, 0, 58.023702053557386, 33.5, 0" fill="#222" fill-opacity="0.028666666666666667" stroke="#000" stroke-opacity="0.02" transform="translate(134.0, 58.023702053557386) rotate(180, 33.5, 29.011851026778693)"></polyline><polyline points="33.5, 0, 67.0, 58.023702053557386, 0, 58.023702053557386, 33.5, 0" fill="#222" fill-opacity="0.13266666666666665" stroke="#000" stroke-opacity="0.02" transform="translate(-33.5, 116.04740410711477) rotate(180, 33.5, 29.011851026778693)"></polyline><polyline points="33.5, 0, 67.0, 58.023702053557386, 0, 58.023702053557386, 33.5, 0" fill="#222" fill-opacity="0.13266666666666665" stroke="#000" stroke-opacity="0.02" transform="translate(167.5, 116.04740410711477) rotate(180, 33.5, 29.011851026778693)"></polyline><polyline points="33.5, 0, 67.0, 58.023702053557386, 0, 58.023702053557386, 33.5, 0" fill="#222" fill-opacity="0.15" stroke="#000" stroke-opacity="0.02" transform="translate(0.0, 116.04740410711477) rotate(0, 33.5, 29.011851026778693)"></polyline><polyline points="33.5, 0, 67.0, 58.023702053557386, 0, 58.023702053557386, 33.5, 0" fill="#ddd" fill-opacity="0.02" stroke="#000" stroke-opacity="0.02" transform="translate(33.5, 116.04740410711477) rotate(180, 33.5, 29.011851026778693)"></polyline><polyline points="33.5, 0, 67.0, 58.023702053557386, 0, 58.023702053557386, 33.5, 0" fill="#222" fill-opacity="0.046" stroke="#000" stroke-opacity="0.02" transform="translate(67.0, 116.04740410711477) rotate(0, 33.5, 29.011851026778693)"></polyline><polyline points="33.5, 0, 67.0, 58.023702053557386, 0, 58.023702053557386, 33.5, 0" fill="#222" fill-opacity="0.028666666666666667" stroke="#000" stroke-opacity="0.02" transform="translate(100.5, 116.04740410711477) rotate(180, 33.5, 29.011851026778693)"></polyline><polyline points="33.5, 0, 67.0, 58.023702053557386, 0, 58.023702053557386, 33.5, 0" fill="#222" fill-opacity="0.028666666666666667" stroke="#000" stroke-opacity="0.02" transform="translate(134.0, 116.04740410711477) rotate(0, 33.5, 29.011851026778693)"></polyline><polyline points="33.5, 0, 67.0, 58.023702053557386, 0, 58.023702053557386, 33.5, 0" fill="#222" fill-opacity="0.11533333333333334" stroke="#000" stroke-opacity="0.02" transform="translate(-33.5, 174.07110616067217) rotate(0, 33.5, 29.011851026778693)"></polyline><polyline points="33.5, 0, 67.0, 58.023702053557386, 0, 58.023702053557386, 33.5, 0" fill="#222" fill-opacity="0.11533333333333334" stroke="#000" stroke-opacity="0.02" transform="translate(167.5, 174.07110616067217) rotate(0, 33.5, 29.011851026778693)"></polyline><polyline points="33.5, 0, 67.0, 58.023702053557386, 0, 58.023702053557386, 33.5, 0" fill="#222" fill-opacity="0.098" stroke="#000" stroke-opacity="0.02" transform="translate(0.0, 174.07110616067217) rotate(180, 33.5, 29.011851026778693)"></polyline><polyline points="33.5, 0, 67.0, 58.023702053557386, 0, 58.023702053557386, 33.5, 0" fill="#222" fill-opacity="0.13266666666666665" stroke="#000" stroke-opacity="0.02" transform="translate(33.5, 174.07110616067217) rotate(0, 33.5, 29.011851026778693)"></polyline><polyline points="33.5, 0, 67.0, 58.023702053557386, 0, 58.023702053557386, 33.5, 0" fill="#222" fill-opacity="0.15" stroke="#000" stroke-opacity="0.02" transform="translate(67.0, 174.07110616067217) rotate(180, 33.5, 29.011851026778693)"></polyline><polyline points="33.5, 0, 67.0, 58.023702053557386, 0, 58.023702053557386, 33.5, 0" fill="#222" fill-opacity="0.028666666666666667" stroke="#000" stroke-opacity="0.02" transform="translate(100.5, 174.07110616067217) rotate(0, 33.5, 29.011851026778693)"></polyline><polyline points="33.5, 0, 67.0, 58.023702053557386, 0, 58.023702053557386, 33.5, 0" fill="#222" fill-opacity="0.046" stroke="#000" stroke-opacity="0.02" transform="translate(134.0, 174.07110616067217) rotate(180, 33.5, 29.011851026778693)"></polyline><polyline points="33.5, 0, 67.0, 58.023702053557386, 0, 58.023702053557386, 33.5, 0" fill="#ddd" fill-opacity="0.12400000000000001" stroke="#000" stroke-opacity="0.02" transform="translate(-33.5, 232.09480821422954) rotate(180, 33.5, 29.011851026778693)"></polyline><polyline points="33.5, 0, 67.0, 58.023702053557386, 0, 58.023702053557386, 33.5, 0" fill="#ddd" fill-opacity="0.12400000000000001" stroke="#000" stroke-opacity="0.02" transform="translate(167.5, 232.09480821422954) rotate(180, 33.5, 29.011851026778693)"></polyline><polyline points="33.5, 0, 67.0, 58.023702053557386, 0, 58.023702053557386, 33.5, 0" fill="#ddd" fill-opacity="0.12400000000000001" stroke="#000" stroke-opacity="0.02" transform="translate(0.0, 232.09480821422954) rotate(0, 33.5, 29.011851026778693)"></polyline><polyline points="33.5, 0, 67.0, 58.023702053557386, 0, 58.023702053557386, 33.5, 0" fill="#ddd" fill-opacity="0.07200000000000001" stroke="#000" stroke-opacity="0.02" transform="translate(33.5, 232.09480821422954) rotate(180, 33.5, 29.011851026778693)"></polyline><polyline points="33.5, 0, 67.0, 58.023702053557386, 0, 58.023702053557386, 33.5, 0" fill="#ddd" fill-opacity="0.12400000000000001" stroke="#000" stroke-opacity="0.02" transform="translate(67.0, 232.09480821422954) rotate(0, 33.5, 29.011851026778693)"></polyline><polyline points="33.5, 0, 67.0, 58.023702053557386, 0, 58.023702053557386, 33.5, 0" fill="#222" fill-opacity="0.046" stroke="#000" stroke-opacity="0.02" transform="translate(100.5, 232.09480821422954) rotate(180, 33.5, 29.011851026778693)"></polyline><polyline points="33.5, 0, 67.0, 58.023702053557386, 0, 58.023702053557386, 33.5, 0" fill="#222" fill-opacity="0.11533333333333334" stroke="#000" stroke-opacity="0.02" transform="translate(134.0, 232.09480821422954) rotate(0, 33.5, 29.011851026778693)"></polyline><polyline points="33.5, 0, 67.0, 58.023702053557386, 0, 58.023702053557386, 33.5, 0" fill="#ddd" fill-opacity="0.07200000000000001" stroke="#000" stroke-opacity="0.02" transform="translate(-33.5, 290.1185102677869) rotate(0, 33.5, 29.011851026778693)"></polyline><polyline points="33.5, 0, 67.0, 58.023702053557386, 0, 58.023702053557386, 33.5, 0" fill="#ddd" fill-opacity="0.07200000000000001" stroke="#000" stroke-opacity="0.02" transform="translate(167.5, 290.1185102677869) rotate(0, 33.5, 29.011851026778693)"></polyline><polyline points="33.5, 0, 67.0, 58.023702053557386, 0, 58.023702053557386, 33.5, 0" fill="#ddd" fill-opacity="0.02" stroke="#000" stroke-opacity="0.02" transform="translate(0.0, 290.1185102677869) rotate(180, 33.5, 29.011851026778693)"></polyline><polyline points="33.5, 0, 67.0, 58.023702053557386, 0, 58.023702053557386, 33.5, 0" fill="#222" fill-opacity="0.08066666666666666" stroke="#000" stroke-opacity="0.02" transform="translate(33.5, 290.1185102677869) rotate(0, 33.5, 29.011851026778693)"></polyline><polyline points="33.5, 0, 67.0, 58.023702053557386, 0, 58.023702053557386, 33.5, 0" fill="#ddd" fill-opacity="0.08933333333333333" stroke="#000" stroke-opacity="0.02" transform="translate(67.0, 290.1185102677869) rotate(180, 33.5, 29.011851026778693)"></polyline><polyline points="33.5, 0, 67.0, 58.023702053557386, 0, 58.023702053557386, 33.5, 0" fill="#222" fill-opacity="0.13266666666666665" stroke="#000" stroke-opacity="0.02" transform="translate(100.5, 290.1185102677869) rotate(0, 33.5, 29.011851026778693)"></polyline><polyline points="33.5, 0, 67.0, 58.023702053557386, 0, 58.023702053557386, 33.5, 0" fill="#ddd" fill-opacity="0.03733333333333333" stroke="#000" stroke-opacity="0.02" transform="translate(134.0, 290.1185102677869) rotate(180, 33.5, 29.011851026778693)"></polyline></svg>