<svg xmlns="http://www.w3.org/2000/svg" width="186" height="186"><g fill="#ddd" style="opacity:0.12400000000000001;" transform="translate(-31.119,-31.119) rotate(45, 31.119, 31.119)"><rect x="22.0" y="0" width="22.0" height="66.0"></rect><rect x="0" y="22.0" width="66.0" height="22.0"></rect></g><g fill="#ddd" style="opacity:0.12400000000000001;" transform="translate(155.595,-31.119) rotate(45, 31.119, 31.119)"><rect x="22.0" y="0" width="22.0" height="66.0"></rect><rect x="0" y="22.0" width="66.0" height="22.0"></rect></g><g fill="#ddd" style="opacity:0.12400000000000001;" transform="translate(-31.119,155.59499999999997) rotate(45, 31.119, 31.119)"><rect x="22.0" y="0" width="22.0" height="66.0"></rect><rect x="0" y="22.0" width="66.0" height="22.0"></rect></g><g fill="#ddd" style="opacity:0.12400000000000001;" transform="translate(155.595,155.59499999999997) rotate(45, 31.119, 31.119)"><rect x="22.0" y="0" width="22.0" height="66.0"></rect><rect x="0" y="22.0" width="66.0" height="22.0"></rect></g><g fill="#ddd" style="opacity:0.02;" transform="translate(0.0,-15.5595) rotate(45, 31.119, 31.119)"><rect x="22.0" y="0" width="22.0" height="66.0"></rect><rect x="0" y="22.0" width="66.0" height="22.0"></rect></g><g fill="#ddd" style="opacity:0.02;" transform="translate(0.0,171.15449999999998) rotate(45, 31.119, 31.119)"><rect x="22.0" y="0" width="22.0" height="66.0"></rect><rect x="0" y="22.0" width="66.0" height="22.0"></rect></g><g fill="#222" style="opacity:0.06333333333333334;" transform="translate(31.119,-31.119) rotate(45, 31.119, 31.119)"><rect x="22.0" y="0" width="22.0" height="66.0"></rect><rect x="0" y="22.0" width="66.0" height="22.0"></rect></g><g fill="#222" style="opacity:0.06333333333333334;" transform="translate(31.119,155.59499999999997) rotate(45, 31.119, 31.119)"><rect x="22.0" y="0" width="22.0" height="66.0"></rect><rect x="0" y="22.0" width="66.0" height="22.0"></rect></g><g fill="#222" style="opacity:0.046;" transform="translate(62.238,-15.5595) rotate(45, 31.119, 31.119)"><rect x="22.0" y="0" width="22.0" height="66.0"></rect><rect x="0" y="22.0" width="66.0" height="22.0"></rect></g><g fill="#222" style="opacity:0.046;" transform="translate(62.238,171.15449999999998) rotate(45, 31.119, 31.119)"><rect x="22.0" y="0" width="22.0" height="66.0"></rect><rect x="0" y="22.0" width="66.0" height="22.0"></rect></g><g fill="#ddd" style="opacity:0.14133333333333334;" transform="translate(93.357,-31.119) rotate(45, 31.119, 31.119)"><rect x="22.0" y="0" width="22.0" height="66.0"></rect><rect x="0" y="22.0" width="66.0" height="22.0"></rect></g><g fill="#ddd" style="opacity:0.14133333333333334;" transform="translate(93.357,155.59499999999997) rotate(45, 31.119, 31.119)"><rect x="22.0" y="0" width="22.0" height="66.0"></rect><rect x="0" y="22.0" width="66.0" height="22.0"></rect></g><g fill="#ddd" style="opacity:0.12400000000000001;" transform="translate(124.476,-15.5595) rotate(45, 31.119, 31.119)"><rect x="22.0" y="0" width="22.0" height="66.0"></rect><rect x="0" y="22.0" width="66.0" height="22.0"></rect></g><g fill="#ddd" style="opacity:0.12400000000000001;" transform="translate(124.476,171.15449999999998) rotate(45, 31.119, 31.119)"><rect x="22.0" y="0" width="22.0" height="66.0"></rect><rect x="0" y="22.0" width="66.0" height="22.0"></rect></g><g fill="#222" style="opacity:0.15;" transform="translate(-31.119,0.0) rotate(45, 31.119, 31.119)"><rect x="22.0" y="0" width="22.0" height="66.0"></rect><rect x="0" y="22.0" width="66.0" height="22.0"></rect></g><g fill="#222" style="opacity:0.15;" transform="translate(155.595,0.0) rotate(45, 31.119, 31.119)"><rect x="22.0" y="0" width="22.0" height="66.0"></rect><rect x="0" y="22.0" width="66.0" height="22.0"></rect></g><g fill="#222" style="opacity:0.098;" transform="translate(0.0,15.5595) rotate(45, 31.119, 31.119)"><rect x="22.0" y="0" width="22.0" height="66.0"></rect><rect x="0" y="22.0" width="66.0" height="22.0"></rect></g><g fill="#ddd" style="opacity:0.14133333333333334;" transform="translate(31.119,0.0) rotate(45, 31.119, 31.119)"><rect x="22.0" y="0" width="22.0" height="66.0"></rect><rect x="0" y="22.0" width="66.0" height="22.0"></rect></g><g fill="#222" style="opacity:0.13266666666666665;" transform="translate(62.238,15.5595) rotate(45, 31.119, 31.119)"><rect x="22.0" y="0" width="22.0" height="66.0"></rect><rect x="0" y="22.0" width="66.0" height="22.0"></rect></g><g fill="#ddd" style="opacity:0.05466666666666667;" transform="translate(93.357,0.0) rotate(45, 31.119, 31.119)"><rect x="22.0" y="0" width="22.0" height="66.0"></rect><rect x="0" y="22.0" width="66.0" height="22.0"></rect></g><g fill="#222" style="opacity:0.028666666666666667;" transform="translate(124.476,15.5595) rotate(45, 31.119, 31.119)"><rect x="22.0" y="0" width="22.0" height="66.0"></rect><rect x="0" y="22.0" width="66.0" height="22.0"></rect></g><g fill="#222" style="opacity:0.13266666666666665;" transform="translate(-31.119,31.119) rotate(45, 31.119, 31.119)"><rect x="22.0" y="0" width="22.0" height="66.0"></rect><rect x="0" y="22.0" width="66.0" height="22.0"></rect></g><g fill="#222" style="opacity:0.13266666666666665;" transform="translate(155.595,31.119) rotate(45, 31.119, 31.119)"><rect x="22.0" y="0" width="22.0" height="66.0"></rect><rect x="0" y="22.0" width="66.0" height="22.0"></rect></g><g fill="#222" style="opacity:0.15;" transform="translate(0.0,46.6785) rotate(45, 31.119, 31.119)"><rect x="22.0" y="0" width="22.0" height="66.0"></rect><rect x="0" y="22.0" width="66.0" height="22.0"></rect></g><g fill="#ddd" style="opacity:0.02;" transform="translate(31.119,31.119) rotate(45, 31.119, 31.119)"><rect x="22.0" y="0" width="22.0" height="66.0"></rect><rect x="0" y="22.0" width="66.0" height="22.0"></rect></g><g fill="#222" style="opacity:0.046;" transform="translate(62.238,46.6785) rotate(45, 31.119, 31.119)"><rect x="22.0" y="0" width="22.0" height="66.0"></rect><rect x="0" y="22.0" width="66.0" height="22.0"></rect></g><g fill="#222" style="opacity:0.028666666666666667;" transform="translate(93.357,31.119) rotate(45, 31.119, 31.119)"><rect x="22.0" y="0" width="22.0" height="66.0"></rect><rect x="0" y="22.0" width="66.0" height="22.0"></rect></g><g fill="#222" style="opacity:0.028666666666666667;" transform="translate(124.476,46.6785) rotate(45, 31.119, 31.119)"><rect x="22.0" y="0" width="22.0" height="66.0"></rect><rect x="0" y="22.0" width="66.0" height="22.0"></rect></g><g fill="#222" style="opacity:0.11533333333333334;" transform="translate(-31.119,62.238) rotate(45, 31.119, 31.119)"><rect x="22.0" y="0" width="22.0" height="66.0"></rect><rect x="0" y="22.0" width="66.0" height="22.0"></rect></g><g fill="#222" style="opacity:0.11533333333333334;" transform="translate(155.595,62.238) rotate(45, 31.119, 31.119)"><rect x="22.0" y="0" width="22.0" height="66.0"></rect><rect x="0" y="22.0" width="66.0" height="22.0"></rect></g><g fill="#222" style="opacity:0.098;" transform="translate(0.0,77.79749999999999) rotate(45, 31.119, 31.119)"><rect x="22.0" y="0" width="22.0" height="66.0"></rect><rect x="0" y="22.0" width="66.0" height="22.0"></rect></g><g fill="#222" style="opacity:0.13266666666666665;" transform="translate(31.119,62.238) rotate(45, 31.119, 31.119)"><rect x="22.0" y="0" width="22.0" height="66.0"></rect><rect x="0" y="22.0" width="66.0" height="22.0"></rect></g><g fill="#222" style="opacity:0.15;" transform="translate(62.238,77.79749999999999) rotate(45, 31.119, 31.119)"><rect x="22.0" y="0" width="22.0" height="66.0"></rect><rect x="0" y="22.0" width="66.0" height="22.0"></rect></g><g fill="#222" style="opacity:0.028666666666666667;" transform="translate(93.357,62.238) rotate(45, 31.119, 31.119)"><rect x="22.0" y="0" width="22.0" height="66.0"></rect><rect x="0" y="22.0" width="66.0" height="22.0"></rect></g><g fill="#222" style="opacity:0.046;" transform="translate(124.476,77.79749999999999) rotate(45, 31.119, 31.119)"><rect x="22.0" y="0" width="22.0" height="66.0"></rect><rect x="0" y="22.0" width="66.0" height="22.0"></rect></g><g fill="#ddd" style="opacity:0.12400000000000001;" transform="translate(-31.119,93.357) rotate(45, 31.119, 31.119)"><rect x="22.0" y="0" width="22.0" height="66.0"></rect><rect x="0" y="22.0" width="66.0" height="22.0"></rect></g><g fill="#ddd" style="opacity:0.12400000000000001;" transform="translate(155.595,93.357) rotate(45, 31.119, 31.119)"><rect x="22.0" y="0" width="22.0" height="66.0"></rect><rect x="0" y="22.0" width="66.0" height="22.0"></rect></g><g fill="#ddd" style="opacity:0.12400000000000001;" transform="translate(0.0,108.91649999999998) rotate(45, 31.119, 31.119)"><rect x="22.0" y="0" width="22.0" height="66.0"></rect><rect x="0" y="22.0" width="66.0" height="22.0"></rect></g><g fill="#ddd" style="opacity:0.07200000000000001;" transform="translate(31.119,93.357) rotate(45, 31.119, 31.119)"><rect x="22.0" y="0" width="22.0" height="66.0"></rect><rect x="0" y="22.0" width="66.0" height="22.0"></rect></g><g fill="#ddd" style="opacity:0.12400000000000001;" transform="translate(62.238,108.91649999999998) rotate(45, 31.119, 31.119)"><rect x="22.0" y="0" width="22.0" height="66.0"></rect><rect x="0" y="22.0" width="66.0" height="22.0"></rect></g><g fill="#222" style="opacity:0.046;" transform="translate(93.357,93.357) rotate(45, 31.119, 31.119)"><rect x="22.0" y="0" width="22.0" height="66.0"></rect><rect x="0" y="22.0" width="66.0" height="22.0"></rect></g><g fill="#222" style="opacity:0.11533333333333334;" transform="translate(124.476,108.91649999999998) rotate(45, 31.119, 31.119)"><rect x="22.0" y="0" width="22.0" height="66.0"></rect><rect x="0" y="22.0" width="66.0" height="22.0"></rect></g><g fill="#ddd" style="opacity:0.07200000000000001;" transform="translate(-31.119,124.47600000000003) rotate(45, 31.119, 31.119)"><rect x="22.0" y="0" width="22.0" height="66.0"></rect><rect x="0" y="22.0" width="66.0" height="22.0"></rect></g><g fill="#ddd" style="opacity:0.07200000000000001;" transform="translate(155.595,124.47600000000003) rotate(45, 31.119, 31.119)"><rect x="22.0" y="0" width="22.0" height="66.0"></rect><rect x="0" y="22.0" width="66.0" height="22.0"></rect></g><g fill="#ddd" style="opacity:0.07200000000000001;" transform="translate(-31.119,-62.23799999999994) rotate(45, 31.119, 31.119)"><rect x="22.0" y="0" width="22.0" height="66.0"></rect><rect x="0" y="22.0" width="66.0" height="22.0"></rect></g><g fill="#ddd" style="opacity:0.02;" transform="translate(0.0,140.03550000000004) rotate(45, 31.119, 31.119)"><rect x="22.0" y="0" width="22.0" height="66.0"></rect><rect x="0" y="22.0" width="66.0" height="22.0"></rect></g><g fill="#ddd" style="opacity:0.02;" transform="translate(0.0,-46.67849999999993) rotate(45, 31.119, 31.119)"><rect x="22.0" y="0" width="22.0" height="66.0"></rect><rect x="0" y="22.0" width="66.0" height="22.0"></rect></g><g fill="#222" style="opacity:0.08066666666666666;" transform="translate(31.119,124.47600000000003) rotate(45, 31.119, 31.119)"><rect x="22.0" y="0" width="22.0" height="66.0"></rect><rect x="0" y="22.0" width="66.0" height="22.0"></rect></g><g fill="#222" style="opacity:0.08066666666666666;" transform="translate(31.119,-62.23799999999994) rotate(45, 31.119, 31.119)"><rect x="22.0" y="0" width="22.0" height="66.0"></rect><rect x="0" y="22.0" width="66.0" height="22.0"></rect></g><g fill="#ddd" style="opacity:0.08933333333333333;" transform="translate(62.238,140.03550000000004) rotate(45, 31.119, 31.119)"><rect x="22.0" y="0" width="22.0" height="66.0"></rect><rect x="0" y="22.0" width="66.0" height="22.0"></rect></g><g fill="#ddd" style="opacity:0.08933333333333333;" transform="translate(62.238,-46.67849999999993) rotate(45, 31.119, 31.119)"><rect x="22.0" y="0" width="22.0" height="66.0"></rect><rect x="0" y="22.0" width="66.0" height="22.0"></rect></g><g fill="#222" style="opacity:0.13266666666666665;" transform="translate(93.357,124.47600000000003) rotate(45, 31.119, 31.119)"><rect x="22.0" y="0" width="22.0" height="66.0"></rect><rect x="0" y="22.0" width="66.0" height="22.0"></rect></g><g fill="#222" style="opacity:0.13266666666666665;" transform="translate(93.357,-62.23799999999994) rotate(45, 31.119, 31.119)"><rect x="22.0" y="0" width="22.0" height="66.0"></rect><rect x="0" y="22.0" width="66.0" height="22.0"></rect></g><g fill="#ddd" style="opacity:0.03733333333333333;" transform="translate(124.476,140.03550000000004) rotate(45, 31.119, 31.119)"><rect x="22.0" y="0" width="22.0" height="66.0"></rect><rect x="0" y="22.0" width="66.0" height="22.0"></rect></g><g fill="#ddd" style="opacity:0.03733333333333333;" transform="translate(124.476,-46.67849999999993) rotate(45, 31.119, 31.119)"><rect x="22.0" y="0" width="22.0" height="66.0"></rect><rect x="0" y="22.0" width="66.0" height="22.0"></rect></g></svg>